G04*
G04 #@! TF.GenerationSoftware,Altium Limited,CircuitMaker,2.2.1 (2.2.1.6)*
G04*
G04 Layer_Color=12697792*
%FSLAX44Y44*%
%MOMM*%
G71*
G04*
G04 #@! TF.SameCoordinates,2AB76CEE-A046-4D56-9755-BC6112196B6F*
G04*
G04*
G04 #@! TF.FilePolarity,Positive*
G04*
G01*
G75*
%ADD10C,0.2540*%
%ADD33R,2.7940X2.7940*%
%ADD34C,2.7940*%
%ADD35R,1.5240X1.5240*%
%ADD36C,1.5240*%
%ADD37O,3.0480X1.5240*%
%ADD38R,1.6510X1.6510*%
%ADD39C,1.6510*%
%ADD40O,3.0000X3.4000*%
%ADD41O,1.5000X2.0000*%
%ADD42C,1.7780*%
%ADD43C,1.7000*%
%ADD44R,1.7000X1.7000*%
%ADD45C,3.0000*%
%ADD46C,6.0000*%
G54D10*
X450000Y400000D02*
G03*
X450000Y400000I0J0D01*
G01*
X500000Y50000D02*
G03*
X500000Y50000I0J0D01*
G01*
Y350000D02*
G03*
X450000Y400000I-50000J0D01*
G01*
Y0D02*
G03*
X500000Y50000I0J50000D01*
G01*
X0D02*
G03*
X50000Y0I50000J0D01*
G01*
Y400000D02*
G03*
X0Y350000I0J-50000D01*
G01*
X50000Y400000D02*
X450000D01*
X0Y50000D02*
Y350000D01*
X50000Y0D02*
X450000D01*
X500000Y50000D02*
Y350000D01*
G54D33*
X99500Y229100D02*
D03*
Y111100D02*
D03*
G54D34*
Y279900D02*
D03*
Y161900D02*
D03*
G54D35*
X185000Y241750D02*
D03*
G54D36*
Y267150D02*
D03*
X274664Y81500D02*
D03*
X325463D02*
D03*
X275352Y278750D02*
D03*
X326152D02*
D03*
X325463Y120000D02*
D03*
X274664D02*
D03*
X223250Y87299D02*
D03*
X223248Y187300D02*
D03*
X391750Y149999D02*
D03*
X391748Y250001D02*
D03*
G54D37*
X279743Y81500D02*
D03*
X320383D02*
D03*
X280432Y278750D02*
D03*
X321072D02*
D03*
X320383Y120000D02*
D03*
X279743D02*
D03*
G54D38*
X256185Y238100D02*
D03*
G54D39*
Y212700D02*
D03*
Y161900D02*
D03*
X343942D02*
D03*
Y187300D02*
D03*
Y212700D02*
D03*
Y238100D02*
D03*
X256185Y187300D02*
D03*
G54D40*
X251250Y326000D02*
D03*
X351250D02*
D03*
G54D41*
X276250Y359000D02*
D03*
X301250D02*
D03*
X326250D02*
D03*
G54D42*
X391748Y360599D02*
D03*
Y284399D02*
D03*
X459000Y161901D02*
D03*
Y238101D02*
D03*
G54D43*
X183250Y33750D02*
D03*
X208650D02*
D03*
G54D44*
X234050D02*
D03*
G54D45*
X450000Y350000D02*
D03*
X50000Y50000D02*
D03*
G54D46*
X450000D02*
D03*
X50000Y350000D02*
D03*
M02*
