G04*
G04 #@! TF.GenerationSoftware,Altium Limited,CircuitMaker,2.2.1 (2.2.1.6)*
G04*
G04 Layer_Color=2752767*
%FSLAX44Y44*%
%MOMM*%
G71*
G04*
G04 #@! TF.SameCoordinates,2AB76CEE-A046-4D56-9755-BC6112196B6F*
G04*
G04*
G04 #@! TF.FilePolarity,Positive*
G04*
G01*
G75*
%ADD10C,0.2540*%
%ADD51C,0.0508*%
%ADD52C,0.3810*%
%ADD53C,0.4064*%
%ADD54C,0.3556*%
G54D10*
X35555Y1007183D02*
G03*
X35555Y1007183I-8467J0D01*
G01*
X32168Y930983D02*
G03*
X32168Y930983I-5080J0D01*
G01*
X35555D02*
G03*
X35555Y930983I-8467J0D01*
G01*
X27088Y1036816D02*
X35555Y1053749D01*
X18621D02*
X35555D01*
X18621D02*
X27088Y1036816D01*
X18621Y969083D02*
X27088Y960616D01*
X35555Y969083D01*
X27088Y977550D02*
X35555Y969083D01*
X18621D02*
X27088Y977550D01*
X22855Y888650D02*
X27088Y884416D01*
X18621Y888650D02*
X22855D01*
X18621D02*
X22855Y892883D01*
X18621Y897116D02*
X22855Y892883D01*
X18621Y897116D02*
X22855D01*
X27088Y901349D01*
X31321Y897116D01*
X35555D01*
X31321Y892883D02*
X35555Y897116D01*
X31321Y892883D02*
X35555Y888650D01*
X31321D02*
X35555D01*
X27088Y884416D02*
X31321Y888650D01*
X22008Y849703D02*
X32168D01*
Y859863D01*
X22008D02*
X32168D01*
X22008Y849703D02*
Y859863D01*
X18621Y846316D02*
X35555D01*
Y863250D01*
X18621D02*
X35555D01*
X18621Y846316D02*
Y863250D01*
Y812449D02*
X22855D01*
X18621D02*
Y820916D01*
X22855D01*
Y825150D01*
X31321D01*
Y820916D02*
Y825150D01*
Y820916D02*
X35555D01*
Y812449D02*
Y820916D01*
X31321Y812449D02*
X35555D01*
X31321Y808216D02*
Y812449D01*
X22855Y808216D02*
X31321D01*
X22855D02*
Y812449D01*
X18621Y770116D02*
X35555D01*
Y787049D01*
X18621D02*
X35555D01*
X18621Y770116D02*
Y787049D01*
Y732016D02*
Y736249D01*
X22855Y740483D01*
X18621Y744716D02*
X22855Y740483D01*
X18621Y744716D02*
Y748950D01*
X22855D01*
X27088Y744716D01*
X31321Y748950D01*
X35555D01*
Y744716D02*
Y748950D01*
X31321Y740483D02*
X35555Y744716D01*
X31321Y740483D02*
X35555Y736249D01*
Y732016D02*
Y736249D01*
X31321Y732016D02*
X35555D01*
X27088Y736249D02*
X31321Y732016D01*
X22855D02*
X27088Y736249D01*
X18621Y732016D02*
X22855D01*
X603742Y1036816D02*
Y1052051D01*
X611360D01*
X613899Y1049512D01*
Y1044434D01*
X611360Y1041895D01*
X603742D01*
X608821D02*
X613899Y1036816D01*
X621517D02*
X626595D01*
X629134Y1039355D01*
Y1044434D01*
X626595Y1046973D01*
X621517D01*
X618978Y1044434D01*
Y1039355D01*
X621517Y1036816D01*
X634213Y1046973D02*
Y1039355D01*
X636752Y1036816D01*
X644369D01*
Y1046973D01*
X649448Y1036816D02*
Y1046973D01*
X657065D01*
X659604Y1044434D01*
Y1036816D01*
X674839Y1052051D02*
Y1036816D01*
X667222D01*
X664683Y1039355D01*
Y1044434D01*
X667222Y1046973D01*
X674839D01*
X603742Y998716D02*
Y1013951D01*
X611360D01*
X613899Y1011412D01*
Y1006334D01*
X611360Y1003794D01*
X603742D01*
X608821D02*
X613899Y998716D01*
X621517D02*
X626595D01*
X629134Y1001255D01*
Y1006334D01*
X626595Y1008873D01*
X621517D01*
X618978Y1006334D01*
Y1001255D01*
X621517Y998716D01*
X634213Y1008873D02*
Y1001255D01*
X636752Y998716D01*
X644369D01*
Y1008873D01*
X649448Y998716D02*
Y1008873D01*
X657065D01*
X659604Y1006334D01*
Y998716D01*
X674839Y1013951D02*
Y998716D01*
X667222D01*
X664683Y1001255D01*
Y1006334D01*
X667222Y1008873D01*
X674839D01*
X603742Y960616D02*
Y975851D01*
X611360D01*
X613899Y973312D01*
Y968234D01*
X611360Y965695D01*
X603742D01*
X608821D02*
X613899Y960616D01*
X621517D02*
X626595D01*
X629134Y963155D01*
Y968234D01*
X626595Y970773D01*
X621517D01*
X618978Y968234D01*
Y963155D01*
X621517Y960616D01*
X634213Y970773D02*
Y963155D01*
X636752Y960616D01*
X644369D01*
Y970773D01*
X649448Y960616D02*
Y970773D01*
X657065D01*
X659604Y968234D01*
Y960616D01*
X674839Y975851D02*
Y960616D01*
X667222D01*
X664683Y963155D01*
Y968234D01*
X667222Y970773D01*
X674839D01*
X603742Y922516D02*
Y937751D01*
X611360D01*
X613899Y935212D01*
Y930134D01*
X611360Y927595D01*
X603742D01*
X608821D02*
X613899Y922516D01*
X621517D02*
X626595D01*
X629134Y925055D01*
Y930134D01*
X626595Y932673D01*
X621517D01*
X618978Y930134D01*
Y925055D01*
X621517Y922516D01*
X634213Y932673D02*
Y925055D01*
X636752Y922516D01*
X644369D01*
Y932673D01*
X649448Y922516D02*
Y932673D01*
X657065D01*
X659604Y930134D01*
Y922516D01*
X674839Y937751D02*
Y922516D01*
X667222D01*
X664683Y925055D01*
Y930134D01*
X667222Y932673D01*
X674839D01*
X603742Y884416D02*
Y899651D01*
X611360D01*
X613899Y897112D01*
Y892034D01*
X611360Y889494D01*
X603742D01*
X608821D02*
X613899Y884416D01*
X621517D02*
X626595D01*
X629134Y886955D01*
Y892034D01*
X626595Y894573D01*
X621517D01*
X618978Y892034D01*
Y886955D01*
X621517Y884416D01*
X634213Y894573D02*
Y886955D01*
X636752Y884416D01*
X644369D01*
Y894573D01*
X649448Y884416D02*
Y894573D01*
X657065D01*
X659604Y892034D01*
Y884416D01*
X674839Y899651D02*
Y884416D01*
X667222D01*
X664683Y886955D01*
Y892034D01*
X667222Y894573D01*
X674839D01*
X603742Y846316D02*
Y861551D01*
X611360D01*
X613899Y859012D01*
Y853934D01*
X611360Y851395D01*
X603742D01*
X608821D02*
X613899Y846316D01*
X621517D02*
X626595D01*
X629134Y848855D01*
Y853934D01*
X626595Y856473D01*
X621517D01*
X618978Y853934D01*
Y848855D01*
X621517Y846316D01*
X634213Y856473D02*
Y848855D01*
X636752Y846316D01*
X644369D01*
Y856473D01*
X649448Y846316D02*
Y856473D01*
X657065D01*
X659604Y853934D01*
Y846316D01*
X674839Y861551D02*
Y846316D01*
X667222D01*
X664683Y848855D01*
Y853934D01*
X667222Y856473D01*
X674839D01*
X603742Y808216D02*
Y823451D01*
X611360D01*
X613899Y820912D01*
Y815834D01*
X611360Y813295D01*
X603742D01*
X608821D02*
X613899Y808216D01*
X621517D02*
X626595D01*
X629134Y810755D01*
Y815834D01*
X626595Y818373D01*
X621517D01*
X618978Y815834D01*
Y810755D01*
X621517Y808216D01*
X634213Y818373D02*
Y810755D01*
X636752Y808216D01*
X644369D01*
Y818373D01*
X649448Y808216D02*
Y818373D01*
X657065D01*
X659604Y815834D01*
Y808216D01*
X674839Y823451D02*
Y808216D01*
X667222D01*
X664683Y810755D01*
Y815834D01*
X667222Y818373D01*
X674839D01*
X603742Y770116D02*
Y785351D01*
X611360D01*
X613899Y782812D01*
Y777734D01*
X611360Y775194D01*
X603742D01*
X608821D02*
X613899Y770116D01*
X621517D02*
X626595D01*
X629134Y772655D01*
Y777734D01*
X626595Y780273D01*
X621517D01*
X618978Y777734D01*
Y772655D01*
X621517Y770116D01*
X634213Y780273D02*
Y772655D01*
X636752Y770116D01*
X644369D01*
Y780273D01*
X649448Y770116D02*
Y780273D01*
X657065D01*
X659604Y777734D01*
Y770116D01*
X674839Y785351D02*
Y770116D01*
X667222D01*
X664683Y772655D01*
Y777734D01*
X667222Y780273D01*
X674839D01*
X613899Y744712D02*
X611360Y747251D01*
X606282D01*
X603742Y744712D01*
Y742173D01*
X606282Y739634D01*
X611360D01*
X613899Y737094D01*
Y734555D01*
X611360Y732016D01*
X606282D01*
X603742Y734555D01*
X618978Y732016D02*
X624056D01*
X621517D01*
Y747251D01*
X618978D01*
X634213Y732016D02*
X639291D01*
X641830Y734555D01*
Y739634D01*
X639291Y742173D01*
X634213D01*
X631673Y739634D01*
Y734555D01*
X634213Y732016D01*
X649448Y744712D02*
Y742173D01*
X646908D01*
X651987D01*
X649448D01*
Y734555D01*
X651987Y732016D01*
X475250Y1036816D02*
Y1052051D01*
X482868D01*
X485407Y1049512D01*
Y1044434D01*
X482868Y1041895D01*
X475250D01*
X490485Y1052051D02*
X500642D01*
X495563D01*
Y1036816D01*
X505720Y1052051D02*
Y1036816D01*
Y1044434D01*
X515877D01*
Y1052051D01*
Y1036816D01*
X475250Y998716D02*
Y1013951D01*
X482868D01*
X485407Y1011412D01*
Y1006334D01*
X482868Y1003794D01*
X475250D01*
X490485Y1013951D02*
X500642D01*
X495563D01*
Y998716D01*
X505720Y1013951D02*
Y998716D01*
Y1006334D01*
X515877D01*
Y1013951D01*
Y998716D01*
X475250Y960616D02*
Y975851D01*
X482868D01*
X485407Y973312D01*
Y968234D01*
X482868Y965695D01*
X475250D01*
X490485Y975851D02*
X500642D01*
X495563D01*
Y960616D01*
X505720Y975851D02*
Y960616D01*
Y968234D01*
X515877D01*
Y975851D01*
Y960616D01*
X475250Y922516D02*
Y937751D01*
X482868D01*
X485407Y935212D01*
Y930134D01*
X482868Y927595D01*
X475250D01*
X490485Y937751D02*
X500642D01*
X495563D01*
Y922516D01*
X505720Y937751D02*
Y922516D01*
Y930134D01*
X515877D01*
Y937751D01*
Y922516D01*
X475250Y884416D02*
Y899651D01*
X482868D01*
X485407Y897112D01*
Y892034D01*
X482868Y889494D01*
X475250D01*
X490485Y899651D02*
X500642D01*
X495563D01*
Y884416D01*
X505720Y899651D02*
Y884416D01*
Y892034D01*
X515877D01*
Y899651D01*
Y884416D01*
X475250Y846316D02*
Y861551D01*
X482868D01*
X485407Y859012D01*
Y853934D01*
X482868Y851395D01*
X475250D01*
X490485Y861551D02*
X500642D01*
X495563D01*
Y846316D01*
X505720Y861551D02*
Y846316D01*
Y853934D01*
X515877D01*
Y861551D01*
Y846316D01*
X475250Y808216D02*
Y823451D01*
X485407Y808216D01*
Y823451D01*
X490485Y808216D02*
Y823451D01*
X498103D01*
X500642Y820912D01*
Y815834D01*
X498103Y813295D01*
X490485D01*
X505720Y823451D02*
X515877D01*
X510798D01*
Y808216D01*
X520955Y823451D02*
Y808216D01*
Y815834D01*
X531112D01*
Y823451D01*
Y808216D01*
X475250Y770116D02*
Y785351D01*
X482868D01*
X485407Y782812D01*
Y777734D01*
X482868Y775194D01*
X475250D01*
X490485Y785351D02*
X500642D01*
X495563D01*
Y770116D01*
X505720Y785351D02*
Y770116D01*
Y777734D01*
X515877D01*
Y785351D01*
Y770116D01*
X475250Y732016D02*
Y747251D01*
X482868D01*
X485407Y744712D01*
Y739634D01*
X482868Y737094D01*
X475250D01*
X490485Y747251D02*
X500642D01*
X495563D01*
Y732016D01*
X505720Y747251D02*
Y732016D01*
Y739634D01*
X515877D01*
Y747251D01*
Y732016D01*
X291911Y1049512D02*
X294450Y1052051D01*
X299529D01*
X302068Y1049512D01*
Y1039355D01*
X299529Y1036816D01*
X294450D01*
X291911Y1039355D01*
Y1049512D01*
X309686Y1034277D02*
X312225Y1036816D01*
Y1039355D01*
X309686D01*
Y1036816D01*
X312225D01*
X309686Y1034277D01*
X307146Y1031738D01*
X322381Y1052051D02*
X332538D01*
Y1049512D01*
X322381Y1039355D01*
Y1036816D01*
X347773Y1052051D02*
X342695Y1049512D01*
X337617Y1044434D01*
Y1039355D01*
X340156Y1036816D01*
X345234D01*
X347773Y1039355D01*
Y1041895D01*
X345234Y1044434D01*
X337617D01*
X352852Y1036816D02*
Y1046973D01*
X355391D01*
X357930Y1044434D01*
Y1036816D01*
Y1044434D01*
X360469Y1046973D01*
X363008Y1044434D01*
Y1036816D01*
X368087D02*
Y1046973D01*
X370626D01*
X373165Y1044434D01*
Y1036816D01*
Y1044434D01*
X375704Y1046973D01*
X378243Y1044434D01*
Y1036816D01*
X291911Y1011412D02*
X294450Y1013951D01*
X299529D01*
X302068Y1011412D01*
Y1001255D01*
X299529Y998716D01*
X294450D01*
X291911Y1001255D01*
Y1011412D01*
X309686Y996177D02*
X312225Y998716D01*
Y1001255D01*
X309686D01*
Y998716D01*
X312225D01*
X309686Y996177D01*
X307146Y993638D01*
X322381Y1011412D02*
X324921Y1013951D01*
X329999D01*
X332538Y1011412D01*
Y1008873D01*
X329999Y1006334D01*
X332538Y1003794D01*
Y1001255D01*
X329999Y998716D01*
X324921D01*
X322381Y1001255D01*
Y1003794D01*
X324921Y1006334D01*
X322381Y1008873D01*
Y1011412D01*
X324921Y1006334D02*
X329999D01*
X337617Y1001255D02*
X340156Y998716D01*
X345234D01*
X347773Y1001255D01*
Y1011412D01*
X345234Y1013951D01*
X340156D01*
X337617Y1011412D01*
Y1008873D01*
X340156Y1006334D01*
X347773D01*
X352852Y998716D02*
Y1008873D01*
X355391D01*
X357930Y1006334D01*
Y998716D01*
Y1006334D01*
X360469Y1008873D01*
X363008Y1006334D01*
Y998716D01*
X368087D02*
Y1008873D01*
X370626D01*
X373165Y1006334D01*
Y998716D01*
Y1006334D01*
X375704Y1008873D01*
X378243Y1006334D01*
Y998716D01*
X291911Y973312D02*
X294450Y975851D01*
X299529D01*
X302068Y973312D01*
Y963155D01*
X299529Y960616D01*
X294450D01*
X291911Y963155D01*
Y973312D01*
X309686Y958077D02*
X312225Y960616D01*
Y963155D01*
X309686D01*
Y960616D01*
X312225D01*
X309686Y958077D01*
X307146Y955538D01*
X322381Y963155D02*
X324921Y960616D01*
X329999D01*
X332538Y963155D01*
Y973312D01*
X329999Y975851D01*
X324921D01*
X322381Y973312D01*
Y970773D01*
X324921Y968234D01*
X332538D01*
X337617Y973312D02*
X340156Y975851D01*
X345234D01*
X347773Y973312D01*
Y963155D01*
X345234Y960616D01*
X340156D01*
X337617Y963155D01*
Y973312D01*
X352852Y960616D02*
Y970773D01*
X355391D01*
X357930Y968234D01*
Y960616D01*
Y968234D01*
X360469Y970773D01*
X363008Y968234D01*
Y960616D01*
X368087D02*
Y970773D01*
X370626D01*
X373165Y968234D01*
Y960616D01*
Y968234D01*
X375704Y970773D01*
X378243Y968234D01*
Y960616D01*
X291911Y922516D02*
X296990D01*
X294450D01*
Y937751D01*
X291911Y935212D01*
X307146Y919977D02*
X309685Y922516D01*
Y925055D01*
X307146D01*
Y922516D01*
X309685D01*
X307146Y919977D01*
X304607Y917438D01*
X319842Y935212D02*
X322381Y937751D01*
X327460D01*
X329999Y935212D01*
Y925055D01*
X327460Y922516D01*
X322381D01*
X319842Y925055D01*
Y935212D01*
X335077D02*
X337617Y937751D01*
X342695D01*
X345234Y935212D01*
Y925055D01*
X342695Y922516D01*
X337617D01*
X335077Y925055D01*
Y935212D01*
X350312Y922516D02*
Y932673D01*
X352852D01*
X355391Y930134D01*
Y922516D01*
Y930134D01*
X357930Y932673D01*
X360469Y930134D01*
Y922516D01*
X365547D02*
Y932673D01*
X368087D01*
X370626Y930134D01*
Y922516D01*
Y930134D01*
X373165Y932673D01*
X375704Y930134D01*
Y922516D01*
X291911Y884416D02*
X296990D01*
X294450D01*
Y899651D01*
X291911Y897112D01*
X307146Y881877D02*
X309685Y884416D01*
Y886955D01*
X307146D01*
Y884416D01*
X309685D01*
X307146Y881877D01*
X304607Y879338D01*
X319842Y884416D02*
X324921D01*
X322381D01*
Y899651D01*
X319842Y897112D01*
X332538D02*
X335077Y899651D01*
X340156D01*
X342695Y897112D01*
Y886955D01*
X340156Y884416D01*
X335077D01*
X332538Y886955D01*
Y897112D01*
X347773Y884416D02*
Y894573D01*
X350312D01*
X352852Y892034D01*
Y884416D01*
Y892034D01*
X355391Y894573D01*
X357930Y892034D01*
Y884416D01*
X363008D02*
Y894573D01*
X365547D01*
X368087Y892034D01*
Y884416D01*
Y892034D01*
X370626Y894573D01*
X373165Y892034D01*
Y884416D01*
X291911Y846316D02*
X296990D01*
X294450D01*
Y861551D01*
X291911Y859012D01*
X307146Y843777D02*
X309685Y846316D01*
Y848855D01*
X307146D01*
Y846316D01*
X309685D01*
X307146Y843777D01*
X304607Y841238D01*
X329999Y861551D02*
X319842D01*
Y853934D01*
X324921Y856473D01*
X327460D01*
X329999Y853934D01*
Y848855D01*
X327460Y846316D01*
X322381D01*
X319842Y848855D01*
X345234Y846316D02*
X335077D01*
X345234Y856473D01*
Y859012D01*
X342695Y861551D01*
X337617D01*
X335077Y859012D01*
X350312Y846316D02*
Y856473D01*
X352852D01*
X355391Y853934D01*
Y846316D01*
Y853934D01*
X357930Y856473D01*
X360469Y853934D01*
Y846316D01*
X365547D02*
Y856473D01*
X368087D01*
X370626Y853934D01*
Y846316D01*
Y853934D01*
X373165Y856473D01*
X375704Y853934D01*
Y846316D01*
X291911Y820912D02*
X294450Y823451D01*
X299529D01*
X302068Y820912D01*
Y818373D01*
X299529Y815834D01*
X296990D01*
X299529D01*
X302068Y813295D01*
Y810755D01*
X299529Y808216D01*
X294450D01*
X291911Y810755D01*
X309686Y805677D02*
X312225Y808216D01*
Y810755D01*
X309686D01*
Y808216D01*
X312225D01*
X309686Y805677D01*
X307146Y803138D01*
X332538Y808216D02*
X322381D01*
X332538Y818373D01*
Y820912D01*
X329999Y823451D01*
X324921D01*
X322381Y820912D01*
X337617D02*
X340156Y823451D01*
X345234D01*
X347773Y820912D01*
Y810755D01*
X345234Y808216D01*
X340156D01*
X337617Y810755D01*
Y820912D01*
X352852Y808216D02*
Y818373D01*
X355391D01*
X357930Y815834D01*
Y808216D01*
Y815834D01*
X360469Y818373D01*
X363008Y815834D01*
Y808216D01*
X368087D02*
Y818373D01*
X370626D01*
X373165Y815834D01*
Y808216D01*
Y815834D01*
X375704Y818373D01*
X378243Y815834D01*
Y808216D01*
X291911Y782812D02*
X294450Y785351D01*
X299529D01*
X302068Y782812D01*
Y780273D01*
X299529Y777734D01*
X296990D01*
X299529D01*
X302068Y775194D01*
Y772655D01*
X299529Y770116D01*
X294450D01*
X291911Y772655D01*
X309686Y767577D02*
X312225Y770116D01*
Y772655D01*
X309686D01*
Y770116D01*
X312225D01*
X309686Y767577D01*
X307146Y765038D01*
X332538Y770116D02*
X322381D01*
X332538Y780273D01*
Y782812D01*
X329999Y785351D01*
X324921D01*
X322381Y782812D01*
X337617D02*
X340156Y785351D01*
X345234D01*
X347773Y782812D01*
Y772655D01*
X345234Y770116D01*
X340156D01*
X337617Y772655D01*
Y782812D01*
X352852Y770116D02*
Y780273D01*
X355391D01*
X357930Y777734D01*
Y770116D01*
Y777734D01*
X360469Y780273D01*
X363008Y777734D01*
Y770116D01*
X368087D02*
Y780273D01*
X370626D01*
X373165Y777734D01*
Y770116D01*
Y777734D01*
X375704Y780273D01*
X378243Y777734D01*
Y770116D01*
X291911Y732016D02*
X296990D01*
X294450D01*
Y747251D01*
X291911Y744712D01*
X307146Y729477D02*
X309685Y732016D01*
Y734555D01*
X307146D01*
Y732016D01*
X309685D01*
X307146Y729477D01*
X304607Y726938D01*
X319842Y744712D02*
X322381Y747251D01*
X327460D01*
X329999Y744712D01*
Y742173D01*
X327460Y739634D01*
X329999Y737094D01*
Y734555D01*
X327460Y732016D01*
X322381D01*
X319842Y734555D01*
Y737094D01*
X322381Y739634D01*
X319842Y742173D01*
Y744712D01*
X322381Y739634D02*
X327460D01*
X335077Y744712D02*
X337617Y747251D01*
X342695D01*
X345234Y744712D01*
Y734555D01*
X342695Y732016D01*
X337617D01*
X335077Y734555D01*
Y744712D01*
X350312Y732016D02*
Y742173D01*
X352852D01*
X355391Y739634D01*
Y732016D01*
Y739634D01*
X357930Y742173D01*
X360469Y739634D01*
Y732016D01*
X365547D02*
Y742173D01*
X368087D01*
X370626Y739634D01*
Y732016D01*
Y739634D01*
X373165Y742173D01*
X375704Y739634D01*
Y732016D01*
X162404Y693916D02*
Y709151D01*
X154787Y701534D01*
X164943D01*
X180178Y709151D02*
X175100Y706612D01*
X170022Y701534D01*
Y696455D01*
X172561Y693916D01*
X177639D01*
X180178Y696455D01*
Y698995D01*
X177639Y701534D01*
X170022D01*
X200492Y709151D02*
X210649D01*
X205570D01*
Y693916D01*
X218266D02*
X223344D01*
X225884Y696455D01*
Y701534D01*
X223344Y704073D01*
X218266D01*
X215727Y701534D01*
Y696455D01*
X218266Y693916D01*
X233501Y706612D02*
Y704073D01*
X230962D01*
X236040D01*
X233501D01*
Y696455D01*
X236040Y693916D01*
X246197Y704073D02*
X251275D01*
X253815Y701534D01*
Y693916D01*
X246197D01*
X243658Y696455D01*
X246197Y698995D01*
X253815D01*
X258893Y693916D02*
X263971D01*
X261432D01*
Y709151D01*
X258893D01*
X164943Y1052051D02*
X159865Y1049512D01*
X154787Y1044434D01*
Y1039355D01*
X157326Y1036816D01*
X162404D01*
X164943Y1039355D01*
Y1041895D01*
X162404Y1044434D01*
X154787D01*
X164943Y998716D02*
X154787D01*
X164943Y1008873D01*
Y1011412D01*
X162404Y1013951D01*
X157326D01*
X154787Y1011412D01*
X170022D02*
X172561Y1013951D01*
X177639D01*
X180178Y1011412D01*
Y1001255D01*
X177639Y998716D01*
X172561D01*
X170022Y1001255D01*
Y1011412D01*
X162404Y960616D02*
Y975851D01*
X154787Y968234D01*
X164943D01*
X154787Y935212D02*
X157326Y937751D01*
X162404D01*
X164943Y935212D01*
Y932673D01*
X162404Y930134D01*
X159865D01*
X162404D01*
X164943Y927595D01*
Y925055D01*
X162404Y922516D01*
X157326D01*
X154787Y925055D01*
Y897112D02*
X157326Y899651D01*
X162404D01*
X164943Y897112D01*
Y894573D01*
X162404Y892034D01*
X159865D01*
X162404D01*
X164943Y889494D01*
Y886955D01*
X162404Y884416D01*
X157326D01*
X154787Y886955D01*
X162404Y846316D02*
Y861551D01*
X154787Y853934D01*
X164943D01*
Y808216D02*
X154787D01*
X164943Y818373D01*
Y820912D01*
X162404Y823451D01*
X157326D01*
X154787Y820912D01*
X164943Y770116D02*
X154787D01*
X164943Y780273D01*
Y782812D01*
X162404Y785351D01*
X157326D01*
X154787Y782812D01*
X164943Y732016D02*
X154787D01*
X164943Y742173D01*
Y744712D01*
X162404Y747251D01*
X157326D01*
X154787Y744712D01*
X479804Y636778D02*
X489960D01*
X479804Y641856D02*
X489960D01*
X510274Y631699D02*
Y646934D01*
X517891D01*
X520430Y644395D01*
Y639317D01*
X517891Y636778D01*
X510274D01*
X515352D02*
X520430Y631699D01*
X528048D02*
X533126D01*
X535665Y634239D01*
Y639317D01*
X533126Y641856D01*
X528048D01*
X525509Y639317D01*
Y634239D01*
X528048Y631699D01*
X540744Y641856D02*
Y634239D01*
X543283Y631699D01*
X550900D01*
Y641856D01*
X558518Y644395D02*
Y641856D01*
X555979D01*
X561057D01*
X558518D01*
Y634239D01*
X561057Y631699D01*
X576292D02*
X571214D01*
X568675Y634239D01*
Y639317D01*
X571214Y641856D01*
X576292D01*
X578831Y639317D01*
Y636778D01*
X568675D01*
X594067Y646934D02*
Y631699D01*
X586449D01*
X583910Y634239D01*
Y639317D01*
X586449Y641856D01*
X594067D01*
X614380Y631699D02*
Y646934D01*
X621997D01*
X624537Y644395D01*
Y639317D01*
X621997Y636778D01*
X614380D01*
X632154Y641856D02*
X637233D01*
X639772Y639317D01*
Y631699D01*
X632154D01*
X629615Y634239D01*
X632154Y636778D01*
X639772D01*
X647389Y644395D02*
Y641856D01*
X644850D01*
X649928D01*
X647389D01*
Y634239D01*
X649928Y631699D01*
X657546Y646934D02*
Y631699D01*
Y639317D01*
X660085Y641856D01*
X665163D01*
X667703Y639317D01*
Y631699D01*
X688016Y646934D02*
Y631699D01*
X698173D01*
X710869D02*
X705790D01*
X703251Y634239D01*
Y639317D01*
X705790Y641856D01*
X710869D01*
X713408Y639317D01*
Y636778D01*
X703251D01*
X718486Y631699D02*
Y641856D01*
X726104D01*
X728643Y639317D01*
Y631699D01*
X738800Y626621D02*
X741339D01*
X743878Y629160D01*
Y641856D01*
X736261D01*
X733721Y639317D01*
Y634239D01*
X736261Y631699D01*
X743878D01*
X751496Y644395D02*
Y641856D01*
X748956D01*
X754035D01*
X751496D01*
Y634239D01*
X754035Y631699D01*
X761652Y646934D02*
Y631699D01*
Y639317D01*
X764192Y641856D01*
X769270D01*
X771809Y639317D01*
Y631699D01*
X792122Y639317D02*
X802279D01*
X797201Y644395D02*
Y634239D01*
X822593Y646934D02*
X832749D01*
X827671D01*
Y631699D01*
X840367D02*
X845445D01*
X847984Y634239D01*
Y639317D01*
X845445Y641856D01*
X840367D01*
X837828Y639317D01*
Y634239D01*
X840367Y631699D01*
X855602D02*
X860680D01*
X863219Y634239D01*
Y639317D01*
X860680Y641856D01*
X855602D01*
X853063Y639317D01*
Y634239D01*
X855602Y631699D01*
X868298D02*
X873376D01*
X870837D01*
Y646934D01*
X868298D01*
X906385Y644395D02*
X903846Y646934D01*
X898768D01*
X896229Y644395D01*
Y641856D01*
X898768Y639317D01*
X903846D01*
X906385Y636778D01*
Y634239D01*
X903846Y631699D01*
X898768D01*
X896229Y634239D01*
X911464Y631699D02*
X916542D01*
X914003D01*
Y641856D01*
X911464D01*
X924160D02*
X934316D01*
X924160Y631699D01*
X934316D01*
X947012D02*
X941934D01*
X939395Y634239D01*
Y639317D01*
X941934Y641856D01*
X947012D01*
X949551Y639317D01*
Y636778D01*
X939395D01*
X969865D02*
X980022D01*
X969865Y641856D02*
X980022D01*
X1010492Y644395D02*
X1007953Y646934D01*
X1002874D01*
X1000335Y644395D01*
Y641856D01*
X1002874Y639317D01*
X1007953D01*
X1010492Y636778D01*
Y634239D01*
X1007953Y631699D01*
X1002874D01*
X1000335Y634239D01*
X1015570Y631699D02*
X1020648D01*
X1018109D01*
Y646934D01*
X1015570D01*
X1030805Y631699D02*
X1035884D01*
X1038423Y634239D01*
Y639317D01*
X1035884Y641856D01*
X1030805D01*
X1028266Y639317D01*
Y634239D01*
X1030805Y631699D01*
X1046040Y644395D02*
Y641856D01*
X1043501D01*
X1048579D01*
X1046040D01*
Y634239D01*
X1048579Y631699D01*
X1071432D02*
X1076510D01*
X1073971D01*
Y646934D01*
X1071432D01*
X1091746Y631699D02*
X1086667D01*
X1084128Y634239D01*
Y639317D01*
X1086667Y641856D01*
X1091746D01*
X1094285Y639317D01*
Y636778D01*
X1084128D01*
X1099363Y631699D02*
Y641856D01*
X1106981D01*
X1109520Y639317D01*
Y631699D01*
X1119676Y626621D02*
X1122216D01*
X1124755Y629160D01*
Y641856D01*
X1117137D01*
X1114598Y639317D01*
Y634239D01*
X1117137Y631699D01*
X1124755D01*
X1132372Y644395D02*
Y641856D01*
X1129833D01*
X1134911D01*
X1132372D01*
Y634239D01*
X1134911Y631699D01*
X1142529Y646934D02*
Y631699D01*
Y639317D01*
X1145068Y641856D01*
X1150147D01*
X1152686Y639317D01*
Y631699D01*
X1175538Y641856D02*
X1180617D01*
X1183156Y639317D01*
Y631699D01*
X1175538D01*
X1172999Y634239D01*
X1175538Y636778D01*
X1183156D01*
X1188234Y631699D02*
X1195852D01*
X1198391Y634239D01*
X1195852Y636778D01*
X1190773D01*
X1188234Y639317D01*
X1190773Y641856D01*
X1198391D01*
X1228861Y646934D02*
Y631699D01*
X1221244D01*
X1218704Y634239D01*
Y639317D01*
X1221244Y641856D01*
X1228861D01*
X1241557Y631699D02*
X1236479D01*
X1233940Y634239D01*
Y639317D01*
X1236479Y641856D01*
X1241557D01*
X1244096Y639317D01*
Y636778D01*
X1233940D01*
X1251714Y631699D02*
Y644395D01*
Y639317D01*
X1249174D01*
X1254253D01*
X1251714D01*
Y644395D01*
X1254253Y646934D01*
X1261870Y631699D02*
X1266949D01*
X1264410D01*
Y641856D01*
X1261870D01*
X1274566Y631699D02*
Y641856D01*
X1282184D01*
X1284723Y639317D01*
Y631699D01*
X1297419D02*
X1292341D01*
X1289801Y634239D01*
Y639317D01*
X1292341Y641856D01*
X1297419D01*
X1299958Y639317D01*
Y636778D01*
X1289801D01*
X1315193Y646934D02*
Y631699D01*
X1307576D01*
X1305036Y634239D01*
Y639317D01*
X1307576Y641856D01*
X1315193D01*
X1335507Y631699D02*
X1340585D01*
X1338046D01*
Y641856D01*
X1335507D01*
X1348203Y631699D02*
Y641856D01*
X1355820D01*
X1358359Y639317D01*
Y631699D01*
X1381212Y644395D02*
Y641856D01*
X1378673D01*
X1383751D01*
X1381212D01*
Y634239D01*
X1383751Y631699D01*
X1391369Y646934D02*
Y631699D01*
Y639317D01*
X1393908Y641856D01*
X1398986D01*
X1401525Y639317D01*
Y631699D01*
X1414221D02*
X1409143D01*
X1406604Y634239D01*
Y639317D01*
X1409143Y641856D01*
X1414221D01*
X1416760Y639317D01*
Y636778D01*
X1406604D01*
X1437074Y631699D02*
Y646934D01*
X1444691D01*
X1447231Y644395D01*
Y639317D01*
X1444691Y636778D01*
X1437074D01*
X1462466Y644395D02*
X1459926Y646934D01*
X1454848D01*
X1452309Y644395D01*
Y634239D01*
X1454848Y631699D01*
X1459926D01*
X1462466Y634239D01*
X1467544Y646934D02*
Y631699D01*
X1475161D01*
X1477701Y634239D01*
Y636778D01*
X1475161Y639317D01*
X1467544D01*
X1475161D01*
X1477701Y641856D01*
Y644395D01*
X1475161Y646934D01*
X1467544D01*
X1498014Y631699D02*
X1503092D01*
X1500553D01*
Y646934D01*
X1498014D01*
X1513249Y641856D02*
X1518327D01*
X1520867Y639317D01*
Y631699D01*
X1513249D01*
X1510710Y634239D01*
X1513249Y636778D01*
X1520867D01*
X1525945Y641856D02*
Y634239D01*
X1528484Y631699D01*
X1536102D01*
Y629160D01*
X1533562Y626621D01*
X1531023D01*
X1536102Y631699D02*
Y641856D01*
X1543719Y631699D02*
X1548798D01*
X1551337Y634239D01*
Y639317D01*
X1548798Y641856D01*
X1543719D01*
X1541180Y639317D01*
Y634239D01*
X1543719Y631699D01*
X1556415Y641856D02*
Y634239D01*
X1558954Y631699D01*
X1566572D01*
Y641856D01*
X1574189Y644395D02*
Y641856D01*
X1571650D01*
X1576729D01*
X1574189D01*
Y634239D01*
X1576729Y631699D01*
X568675Y662171D02*
X578831D01*
X568675Y667250D02*
X578831D01*
X609302Y669789D02*
X606762Y672328D01*
X601684D01*
X599145Y669789D01*
Y659632D01*
X601684Y657093D01*
X606762D01*
X609302Y659632D01*
X616919Y667250D02*
X621997D01*
X624537Y664710D01*
Y657093D01*
X616919D01*
X614380Y659632D01*
X616919Y662171D01*
X624537D01*
X629615Y657093D02*
X634693D01*
X632154D01*
Y672328D01*
X629615D01*
X652468Y667250D02*
X644850D01*
X642311Y664710D01*
Y659632D01*
X644850Y657093D01*
X652468D01*
X657546Y667250D02*
Y659632D01*
X660085Y657093D01*
X667703D01*
Y667250D01*
X672781Y657093D02*
X677859D01*
X675320D01*
Y672328D01*
X672781D01*
X688016Y667250D02*
X693094D01*
X695634Y664710D01*
Y657093D01*
X688016D01*
X685477Y659632D01*
X688016Y662171D01*
X695634D01*
X703251Y669789D02*
Y667250D01*
X700712D01*
X705790D01*
X703251D01*
Y659632D01*
X705790Y657093D01*
X721025D02*
X715947D01*
X713408Y659632D01*
Y664710D01*
X715947Y667250D01*
X721025D01*
X723565Y664710D01*
Y662171D01*
X713408D01*
X738800Y672328D02*
Y657093D01*
X731182D01*
X728643Y659632D01*
Y664710D01*
X731182Y667250D01*
X738800D01*
X761652Y657093D02*
Y669789D01*
Y664710D01*
X759113D01*
X764191D01*
X761652D01*
Y669789D01*
X764191Y672328D01*
X771809Y667250D02*
Y657093D01*
Y662171D01*
X774348Y664710D01*
X776887Y667250D01*
X779426D01*
X789583Y657093D02*
X794662D01*
X797201Y659632D01*
Y664710D01*
X794662Y667250D01*
X789583D01*
X787044Y664710D01*
Y659632D01*
X789583Y657093D01*
X802279D02*
Y667250D01*
X804818D01*
X807357Y664710D01*
Y657093D01*
Y664710D01*
X809897Y667250D01*
X812436Y664710D01*
Y657093D01*
X835288Y669789D02*
Y667250D01*
X832749D01*
X837828D01*
X835288D01*
Y659632D01*
X837828Y657093D01*
X847984D02*
X853063D01*
X855602Y659632D01*
Y664710D01*
X853063Y667250D01*
X847984D01*
X845445Y664710D01*
Y659632D01*
X847984Y657093D01*
X863219D02*
X868298D01*
X870837Y659632D01*
Y664710D01*
X868298Y667250D01*
X863219D01*
X860680Y664710D01*
Y659632D01*
X863219Y657093D01*
X875915D02*
X880994D01*
X878455D01*
Y672328D01*
X875915D01*
X903846Y657093D02*
X911464D01*
X914003Y659632D01*
X911464Y662171D01*
X906385D01*
X903846Y664710D01*
X906385Y667250D01*
X914003D01*
X921620Y669789D02*
Y667250D01*
X919081D01*
X924160D01*
X921620D01*
Y659632D01*
X924160Y657093D01*
X934316Y667250D02*
X939395D01*
X941934Y664710D01*
Y657093D01*
X934316D01*
X931777Y659632D01*
X934316Y662171D01*
X941934D01*
X947012Y667250D02*
Y657093D01*
Y662171D01*
X949551Y664710D01*
X952091Y667250D01*
X954630D01*
X964787Y669789D02*
Y667250D01*
X962247D01*
X967326D01*
X964787D01*
Y659632D01*
X967326Y657093D01*
X1000335Y667250D02*
X992718D01*
X990178Y664710D01*
Y659632D01*
X992718Y657093D01*
X1000335D01*
X1013031D02*
X1007953D01*
X1005413Y659632D01*
Y664710D01*
X1007953Y667250D01*
X1013031D01*
X1015570Y664710D01*
Y662171D01*
X1005413D01*
X1020648Y657093D02*
Y667250D01*
X1028266D01*
X1030805Y664710D01*
Y657093D01*
X1038423Y669789D02*
Y667250D01*
X1035883D01*
X1040962D01*
X1038423D01*
Y659632D01*
X1040962Y657093D01*
X1048579Y667250D02*
Y657093D01*
Y662171D01*
X1051119Y664710D01*
X1053658Y667250D01*
X1056197D01*
X1071432Y657093D02*
X1066354D01*
X1063814Y659632D01*
Y664710D01*
X1066354Y667250D01*
X1071432D01*
X1073971Y664710D01*
Y662171D01*
X1063814D01*
X1094285Y652014D02*
Y667250D01*
X1101902D01*
X1104441Y664710D01*
Y659632D01*
X1101902Y657093D01*
X1094285D01*
X1112059D02*
X1117137D01*
X1119676Y659632D01*
Y664710D01*
X1117137Y667250D01*
X1112059D01*
X1109520Y664710D01*
Y659632D01*
X1112059Y657093D01*
X1124755D02*
X1132372D01*
X1134911Y659632D01*
X1132372Y662171D01*
X1127294D01*
X1124755Y664710D01*
X1127294Y667250D01*
X1134911D01*
X1139990Y657093D02*
X1145068D01*
X1142529D01*
Y667250D01*
X1139990D01*
X1155225Y669789D02*
Y667250D01*
X1152686D01*
X1157764D01*
X1155225D01*
Y659632D01*
X1157764Y657093D01*
X1165382D02*
X1170460D01*
X1167921D01*
Y667250D01*
X1165382D01*
X1180617Y657093D02*
X1185695D01*
X1188234Y659632D01*
Y664710D01*
X1185695Y667250D01*
X1180617D01*
X1178077Y664710D01*
Y659632D01*
X1180617Y657093D01*
X1193313D02*
Y667250D01*
X1200930D01*
X1203469Y664710D01*
Y657093D01*
X1226322Y669789D02*
Y667250D01*
X1223783D01*
X1228861D01*
X1226322D01*
Y659632D01*
X1228861Y657093D01*
X1239018D02*
X1244096D01*
X1246635Y659632D01*
Y664710D01*
X1244096Y667250D01*
X1239018D01*
X1236479Y664710D01*
Y659632D01*
X1239018Y657093D01*
X1269488Y669789D02*
Y667250D01*
X1266949D01*
X1272027D01*
X1269488D01*
Y659632D01*
X1272027Y657093D01*
X1282184D02*
X1287262D01*
X1289801Y659632D01*
Y664710D01*
X1287262Y667250D01*
X1282184D01*
X1279645Y664710D01*
Y659632D01*
X1282184Y657093D01*
X1297419D02*
X1302497D01*
X1305036Y659632D01*
Y664710D01*
X1302497Y667250D01*
X1297419D01*
X1294880Y664710D01*
Y659632D01*
X1297419Y657093D01*
X1310115D02*
X1315193D01*
X1312654D01*
Y672328D01*
X1310115D01*
X1345663Y657093D02*
X1340585D01*
X1338046Y659632D01*
Y664710D01*
X1340585Y667250D01*
X1345663D01*
X1348203Y664710D01*
Y662171D01*
X1338046D01*
X1353281Y657093D02*
Y667250D01*
X1360898D01*
X1363438Y664710D01*
Y657093D01*
X1378673Y672328D02*
Y657093D01*
X1371055D01*
X1368516Y659632D01*
Y664710D01*
X1371055Y667250D01*
X1378673D01*
X1409143D02*
X1401525D01*
X1398986Y664710D01*
Y659632D01*
X1401525Y657093D01*
X1409143D01*
X1421839D02*
X1416760D01*
X1414221Y659632D01*
Y664710D01*
X1416760Y667250D01*
X1421839D01*
X1424378Y664710D01*
Y662171D01*
X1414221D01*
X1429456Y657093D02*
Y667250D01*
X1437074D01*
X1439613Y664710D01*
Y657093D01*
X1447230Y669789D02*
Y667250D01*
X1444691D01*
X1449770D01*
X1447230D01*
Y659632D01*
X1449770Y657093D01*
X1457387Y667250D02*
Y657093D01*
Y662171D01*
X1459926Y664710D01*
X1462466Y667250D01*
X1465005D01*
X1480240Y657093D02*
X1475161D01*
X1472622Y659632D01*
Y664710D01*
X1475161Y667250D01*
X1480240D01*
X1482779Y664710D01*
Y662171D01*
X1472622D01*
X1503092Y652014D02*
Y667250D01*
X1510710D01*
X1513249Y664710D01*
Y659632D01*
X1510710Y657093D01*
X1503092D01*
X1520867D02*
X1525945D01*
X1528484Y659632D01*
Y664710D01*
X1525945Y667250D01*
X1520867D01*
X1518327Y664710D01*
Y659632D01*
X1520867Y657093D01*
X1533562D02*
X1541180D01*
X1543719Y659632D01*
X1541180Y662171D01*
X1536102D01*
X1533562Y664710D01*
X1536102Y667250D01*
X1543719D01*
X1548798Y657093D02*
X1553876D01*
X1551337D01*
Y667250D01*
X1548798D01*
X1564033Y669789D02*
Y667250D01*
X1561493D01*
X1566572D01*
X1564033D01*
Y659632D01*
X1566572Y657093D01*
X1574189D02*
X1579268D01*
X1576729D01*
Y667250D01*
X1574189D01*
X1589424Y657093D02*
X1594503D01*
X1597042Y659632D01*
Y664710D01*
X1594503Y667250D01*
X1589424D01*
X1586885Y664710D01*
Y659632D01*
X1589424Y657093D01*
X1602120D02*
Y667250D01*
X1609738D01*
X1612277Y664710D01*
Y657093D01*
X1617355D02*
Y659632D01*
X1619895D01*
Y657093D01*
X1617355D01*
G54D51*
X327774Y359000D02*
G03*
X327774Y359000I-1524J0D01*
G01*
X328790D02*
G03*
X328790Y359000I-2540J0D01*
G01*
X302774D02*
G03*
X302774Y359000I-1524J0D01*
G01*
X303790D02*
G03*
X303790Y359000I-2540J0D01*
G01*
X277774D02*
G03*
X277774Y359000I-1524J0D01*
G01*
X278790D02*
G03*
X278790Y359000I-2540J0D01*
G01*
X289904Y120000D02*
G03*
X289904Y120000I-2540J0D01*
G01*
X315303D02*
G03*
X315303Y120000I-2540J0D01*
G01*
X277204D02*
G03*
X277204Y120000I-2540J0D01*
G01*
X328004D02*
G03*
X328004Y120000I-2540J0D01*
G01*
X258725Y187300D02*
G03*
X258725Y187300I-2540J0D01*
G01*
X346482Y238100D02*
G03*
X346482Y238100I-2540J0D01*
G01*
Y212700D02*
G03*
X346482Y212700I-2540J0D01*
G01*
Y187300D02*
G03*
X346482Y187300I-2540J0D01*
G01*
Y161900D02*
G03*
X346482Y161900I-2540J0D01*
G01*
X258725D02*
G03*
X258725Y161900I-2540J0D01*
G01*
Y212700D02*
G03*
X258725Y212700I-2540J0D01*
G01*
Y238100D02*
G03*
X258725Y238100I-2540J0D01*
G01*
X328692Y278750D02*
G03*
X328692Y278750I-2540J0D01*
G01*
X277892D02*
G03*
X277892Y278750I-2540J0D01*
G01*
X315992D02*
G03*
X315992Y278750I-2540J0D01*
G01*
X290592D02*
G03*
X290592Y278750I-2540J0D01*
G01*
X328004Y81500D02*
G03*
X328004Y81500I-2540J0D01*
G01*
X277204D02*
G03*
X277204Y81500I-2540J0D01*
G01*
X315303D02*
G03*
X315303Y81500I-2540J0D01*
G01*
X289904D02*
G03*
X289904Y81500I-2540J0D01*
G01*
X47460Y347460D02*
X52540D01*
Y352540D01*
X47460D02*
X52540D01*
X47460Y347460D02*
Y352540D01*
Y48730D02*
X48730D01*
X47460D02*
Y51270D01*
X48730D01*
Y52540D01*
X51270D01*
Y51270D02*
Y52540D01*
Y51270D02*
X52540D01*
Y48730D02*
Y51270D01*
X51270Y48730D02*
X52540D01*
X51270Y47460D02*
Y48730D01*
X48730Y47460D02*
X51270D01*
X48730D02*
Y48730D01*
X447460Y47460D02*
X452540D01*
Y52540D01*
X447460D02*
X452540D01*
X447460Y47460D02*
Y52540D01*
Y348730D02*
X448730D01*
X447460D02*
Y351270D01*
X448730D01*
Y352540D01*
X451270D01*
Y351270D02*
Y352540D01*
Y351270D02*
X452540D01*
Y348730D02*
Y351270D01*
X451270Y348730D02*
X452540D01*
X451270Y347460D02*
Y348730D01*
X448730Y347460D02*
X451270D01*
X448730D02*
Y348730D01*
X232780Y32480D02*
X234050Y31210D01*
X231510Y32480D02*
X232780D01*
X231510D02*
X232780Y33750D01*
X231510Y35020D02*
X232780Y33750D01*
X231510Y35020D02*
X232780D01*
X234050Y36290D01*
X235320Y35020D01*
X236590D01*
X235320Y33750D02*
X236590Y35020D01*
X235320Y33750D02*
X236590Y32480D01*
X235320D02*
X236590D01*
X234050Y31210D02*
X235320Y32480D01*
X207380D02*
X208650Y31210D01*
X206110Y32480D02*
X207380D01*
X206110D02*
X207380Y33750D01*
X206110Y35020D02*
X207380Y33750D01*
X206110Y35020D02*
X207380D01*
X208650Y36290D01*
X209920Y35020D01*
X211190D01*
X209920Y33750D02*
X211190Y35020D01*
X209920Y33750D02*
X211190Y32480D01*
X209920D02*
X211190D01*
X208650Y31210D02*
X209920Y32480D01*
X181980D02*
X183250Y31210D01*
X180710Y32480D02*
X181980D01*
X180710D02*
X181980Y33750D01*
X180710Y35020D02*
X181980Y33750D01*
X180710Y35020D02*
X181980D01*
X183250Y36290D01*
X184520Y35020D01*
X185790D01*
X184520Y33750D02*
X185790Y35020D01*
X184520Y33750D02*
X185790Y32480D01*
X184520D02*
X185790D01*
X183250Y31210D02*
X184520Y32480D01*
X391748Y247461D02*
X394288Y252541D01*
X389208D02*
X394288D01*
X389208D02*
X391748Y247461D01*
X391750Y147459D02*
X394290Y152539D01*
X389210D02*
X394290D01*
X389210D02*
X391750Y147459D01*
X456460Y238101D02*
X459000Y235561D01*
X461540Y238101D01*
X459000Y240641D02*
X461540Y238101D01*
X456460D02*
X459000Y240641D01*
X456460Y161901D02*
X459000Y159361D01*
X461540Y161901D01*
X459000Y164441D02*
X461540Y161901D01*
X456460D02*
X459000Y164441D01*
X389208Y284399D02*
X391748Y281859D01*
X394288Y284399D01*
X391748Y286939D02*
X394288Y284399D01*
X389208D02*
X391748Y286939D01*
X389208Y360599D02*
X391748Y358059D01*
X394288Y360599D01*
X391748Y363139D02*
X394288Y360599D01*
X389208D02*
X391748Y363139D01*
X223248Y184760D02*
X225788Y189840D01*
X220708D02*
X225788D01*
X220708D02*
X223248Y184760D01*
X223250Y84759D02*
X225790Y89839D01*
X220710D02*
X225790D01*
X220710D02*
X223250Y84759D01*
X348710Y323460D02*
Y324730D01*
X349980Y326000D01*
X348710Y327270D02*
X349980Y326000D01*
X348710Y327270D02*
Y328540D01*
X349980D01*
X351250Y327270D01*
X352520Y328540D01*
X353790D01*
Y327270D02*
Y328540D01*
X352520Y326000D02*
X353790Y327270D01*
X352520Y326000D02*
X353790Y324730D01*
Y323460D02*
Y324730D01*
X352520Y323460D02*
X353790D01*
X351250Y324730D02*
X352520Y323460D01*
X349980D02*
X351250Y324730D01*
X348710Y323460D02*
X349980D01*
X248710D02*
Y324730D01*
X249980Y326000D01*
X248710Y327270D02*
X249980Y326000D01*
X248710Y327270D02*
Y328540D01*
X249980D01*
X251250Y327270D01*
X252520Y328540D01*
X253790D01*
Y327270D02*
Y328540D01*
X252520Y326000D02*
X253790Y327270D01*
X252520Y326000D02*
X253790Y324730D01*
Y323460D02*
Y324730D01*
X252520Y323460D02*
X253790D01*
X251250Y324730D02*
X252520Y323460D01*
X249980D02*
X251250Y324730D01*
X248710Y323460D02*
X249980D01*
X97976Y109576D02*
X101024D01*
Y112624D01*
X97976D02*
X101024D01*
X97976Y109576D02*
Y112624D01*
X96960Y108560D02*
X102040D01*
Y113640D01*
X96960D02*
X102040D01*
X96960Y108560D02*
Y113640D01*
X97976Y160376D02*
X101024D01*
Y163424D01*
X97976D02*
X101024D01*
X97976Y160376D02*
Y163424D01*
X96960Y159360D02*
X102040D01*
Y164440D01*
X96960D02*
X102040D01*
X96960Y159360D02*
Y164440D01*
X185000Y264610D02*
X187540Y269690D01*
X182460D02*
X187540D01*
X182460D02*
X185000Y264610D01*
Y239210D02*
X187540Y244290D01*
X182460D02*
X187540D01*
X182460D02*
X185000Y239210D01*
X97976Y278376D02*
X101024D01*
Y281424D01*
X97976D02*
X101024D01*
X97976Y278376D02*
Y281424D01*
X96960Y277360D02*
X102040D01*
Y282440D01*
X96960D02*
X102040D01*
X96960Y277360D02*
Y282440D01*
X97976Y227576D02*
X101024D01*
Y230624D01*
X97976D02*
X101024D01*
X97976Y227576D02*
Y230624D01*
X96960Y226560D02*
X102040D01*
Y231640D01*
X96960D02*
X102040D01*
X96960Y226560D02*
Y231640D01*
G54D52*
X3434Y1063486D02*
X790128D01*
X3434Y720586D02*
X790128D01*
X3434Y682486D02*
X790128D01*
Y1101586D01*
X3434D02*
X790128D01*
X3434Y682486D02*
Y1101586D01*
X592313Y682486D02*
Y1101586D01*
X463820Y682486D02*
Y1101586D01*
X280481Y682486D02*
Y1101586D01*
X143357Y682486D02*
Y1101586D01*
G54D53*
X603742Y1093198D02*
Y1074916D01*
Y1084057D01*
X615930D01*
Y1093198D01*
Y1074916D01*
X625071D02*
X631166D01*
X634213Y1077963D01*
Y1084057D01*
X631166Y1087104D01*
X625071D01*
X622024Y1084057D01*
Y1077963D01*
X625071Y1074916D01*
X640307D02*
X646401D01*
X643354D01*
Y1093198D01*
X640307D01*
X664683Y1074916D02*
X658589D01*
X655542Y1077963D01*
Y1084057D01*
X658589Y1087104D01*
X664683D01*
X667730Y1084057D01*
Y1081010D01*
X655542D01*
X692106Y1093198D02*
X704294D01*
X698200D01*
Y1074916D01*
X710388Y1087104D02*
Y1077963D01*
X713435Y1074916D01*
X722576D01*
Y1071869D01*
X719529Y1068822D01*
X716482D01*
X722576Y1074916D02*
Y1087104D01*
X728670Y1068822D02*
Y1087104D01*
X737811D01*
X740858Y1084057D01*
Y1077963D01*
X737811Y1074916D01*
X728670D01*
X756093D02*
X749999D01*
X746952Y1077963D01*
Y1084057D01*
X749999Y1087104D01*
X756093D01*
X759140Y1084057D01*
Y1081010D01*
X746952D01*
X475250Y1074916D02*
Y1093198D01*
X484391D01*
X487438Y1090151D01*
Y1084057D01*
X484391Y1081010D01*
X475250D01*
X493532Y1074916D02*
X499626D01*
X496579D01*
Y1093198D01*
X493532D01*
X511814Y1087104D02*
X517908D01*
X520955Y1084057D01*
Y1074916D01*
X511814D01*
X508767Y1077963D01*
X511814Y1081010D01*
X520955D01*
X530096Y1090151D02*
Y1087104D01*
X527049D01*
X533143D01*
X530096D01*
Y1077963D01*
X533143Y1074916D01*
X551425D02*
X545331D01*
X542284Y1077963D01*
Y1084057D01*
X545331Y1087104D01*
X551425D01*
X554472Y1084057D01*
Y1081010D01*
X542284D01*
X572755Y1093198D02*
Y1074916D01*
X563613D01*
X560566Y1077963D01*
Y1084057D01*
X563613Y1087104D01*
X572755D01*
X291911Y1093198D02*
Y1074916D01*
Y1084057D01*
X304099D01*
Y1093198D01*
Y1074916D01*
X313240D02*
X319334D01*
X322381Y1077963D01*
Y1084057D01*
X319334Y1087104D01*
X313240D01*
X310193Y1084057D01*
Y1077963D01*
X313240Y1074916D01*
X328475D02*
X334570D01*
X331522D01*
Y1093198D01*
X328475D01*
X352852Y1074916D02*
X346758D01*
X343711Y1077963D01*
Y1084057D01*
X346758Y1087104D01*
X352852D01*
X355899Y1084057D01*
Y1081010D01*
X343711D01*
X392463Y1090151D02*
X389416Y1093198D01*
X383322D01*
X380275Y1090151D01*
Y1087104D01*
X383322Y1084057D01*
X389416D01*
X392463Y1081010D01*
Y1077963D01*
X389416Y1074916D01*
X383322D01*
X380275Y1077963D01*
X398557Y1074916D02*
X404651D01*
X401604D01*
Y1087104D01*
X398557D01*
X413792D02*
X425980D01*
X413792Y1074916D01*
X425980D01*
X441215D02*
X435121D01*
X432074Y1077963D01*
Y1084057D01*
X435121Y1087104D01*
X441215D01*
X444262Y1084057D01*
Y1081010D01*
X432074D01*
X166975Y1090151D02*
X163928Y1093198D01*
X157834D01*
X154787Y1090151D01*
Y1077963D01*
X157834Y1074916D01*
X163928D01*
X166975Y1077963D01*
X176116Y1074916D02*
X182210D01*
X185257Y1077963D01*
Y1084057D01*
X182210Y1087104D01*
X176116D01*
X173069Y1084057D01*
Y1077963D01*
X176116Y1074916D01*
X191351Y1087104D02*
Y1077963D01*
X194398Y1074916D01*
X203539D01*
Y1087104D01*
X209633Y1074916D02*
Y1087104D01*
X218774D01*
X221821Y1084057D01*
Y1074916D01*
X230962Y1090151D02*
Y1087104D01*
X227915D01*
X234009D01*
X230962D01*
Y1077963D01*
X234009Y1074916D01*
X38482Y1090151D02*
X35435Y1093198D01*
X29341D01*
X26294Y1090151D01*
Y1087104D01*
X29341Y1084057D01*
X35435D01*
X38482Y1081010D01*
Y1077963D01*
X35435Y1074916D01*
X29341D01*
X26294Y1077963D01*
X44576Y1087104D02*
Y1077963D01*
X47623Y1074916D01*
X56764D01*
Y1071869D01*
X53717Y1068822D01*
X50670D01*
X56764Y1074916D02*
Y1087104D01*
X62858Y1074916D02*
Y1087104D01*
X65905D01*
X68952Y1084057D01*
Y1074916D01*
Y1084057D01*
X71999Y1087104D01*
X75046Y1084057D01*
Y1074916D01*
X81140Y1093198D02*
Y1074916D01*
X90281D01*
X93329Y1077963D01*
Y1081010D01*
Y1084057D01*
X90281Y1087104D01*
X81140D01*
X102470Y1074916D02*
X108564D01*
X111611Y1077963D01*
Y1084057D01*
X108564Y1087104D01*
X102470D01*
X99423Y1084057D01*
Y1077963D01*
X102470Y1074916D01*
X117705D02*
X123799D01*
X120752D01*
Y1093198D01*
X117705D01*
G54D54*
X288597Y646934D02*
Y631699D01*
Y639317D01*
X298754D01*
Y646934D01*
Y631699D01*
X306372D02*
X311450D01*
X313989Y634239D01*
Y639317D01*
X311450Y641856D01*
X306372D01*
X303832Y639317D01*
Y634239D01*
X306372Y631699D01*
X319067D02*
X324146D01*
X321607D01*
Y646934D01*
X319067D01*
X339381Y631699D02*
X334302D01*
X331763Y634239D01*
Y639317D01*
X334302Y641856D01*
X339381D01*
X341920Y639317D01*
Y636778D01*
X331763D01*
X362234Y646934D02*
Y631699D01*
X372390D01*
X385086D02*
X380008D01*
X377469Y634239D01*
Y639317D01*
X380008Y641856D01*
X385086D01*
X387625Y639317D01*
Y636778D01*
X377469D01*
X392704Y631699D02*
Y641856D01*
X400321D01*
X402860Y639317D01*
Y631699D01*
X413017Y626621D02*
X415556D01*
X418095Y629160D01*
Y641856D01*
X410478D01*
X407939Y639317D01*
Y634239D01*
X410478Y631699D01*
X418095D01*
X425713Y644395D02*
Y641856D01*
X423174D01*
X428252D01*
X425713D01*
Y634239D01*
X428252Y631699D01*
X435870Y646934D02*
Y631699D01*
Y639317D01*
X438409Y641856D01*
X443487D01*
X446026Y639317D01*
Y631699D01*
X288597Y657093D02*
Y672328D01*
X296215D01*
X298754Y669789D01*
Y664710D01*
X296215Y662171D01*
X288597D01*
X293676D02*
X298754Y657093D01*
X306372D02*
X311450D01*
X313989Y659632D01*
Y664710D01*
X311450Y667250D01*
X306372D01*
X303832Y664710D01*
Y659632D01*
X306372Y657093D01*
X319067Y667250D02*
Y659632D01*
X321607Y657093D01*
X329224D01*
Y667250D01*
X336842Y669789D02*
Y667250D01*
X334302D01*
X339381D01*
X336842D01*
Y659632D01*
X339381Y657093D01*
X354616D02*
X349538D01*
X346998Y659632D01*
Y664710D01*
X349538Y667250D01*
X354616D01*
X357155Y664710D01*
Y662171D01*
X346998D01*
X372390Y672328D02*
Y657093D01*
X364773D01*
X362234Y659632D01*
Y664710D01*
X364773Y667250D01*
X372390D01*
X392704Y657093D02*
Y672328D01*
X400321D01*
X402860Y669789D01*
Y664710D01*
X400321Y662171D01*
X392704D01*
X410478Y667250D02*
X415556D01*
X418095Y664710D01*
Y657093D01*
X410478D01*
X407939Y659632D01*
X410478Y662171D01*
X418095D01*
X425713Y669789D02*
Y667250D01*
X423174D01*
X428252D01*
X425713D01*
Y659632D01*
X428252Y657093D01*
X435870Y672328D02*
Y657093D01*
Y664710D01*
X438409Y667250D01*
X443487D01*
X446026Y664710D01*
Y657093D01*
X466340Y672328D02*
Y657093D01*
X476497D01*
X489192D02*
X484114D01*
X481575Y659632D01*
Y664710D01*
X484114Y667250D01*
X489192D01*
X491732Y664710D01*
Y662171D01*
X481575D01*
X496810Y657093D02*
Y667250D01*
X504427D01*
X506967Y664710D01*
Y657093D01*
X517123Y652014D02*
X519663D01*
X522202Y654554D01*
Y667250D01*
X514584D01*
X512045Y664710D01*
Y659632D01*
X514584Y657093D01*
X522202D01*
X529819Y669789D02*
Y667250D01*
X527280D01*
X532358D01*
X529819D01*
Y659632D01*
X532358Y657093D01*
X539976Y672328D02*
Y657093D01*
Y664710D01*
X542515Y667250D01*
X547593D01*
X550133Y664710D01*
Y657093D01*
X36451Y669789D02*
X33912Y672328D01*
X28833D01*
X26294Y669789D01*
Y667250D01*
X28833Y664710D01*
X33912D01*
X36451Y662171D01*
Y659632D01*
X33912Y657093D01*
X28833D01*
X26294Y659632D01*
X41529Y657093D02*
X46608D01*
X44068D01*
Y672328D01*
X41529D01*
X56764Y657093D02*
X61843D01*
X64382Y659632D01*
Y664710D01*
X61843Y667250D01*
X56764D01*
X54225Y664710D01*
Y659632D01*
X56764Y657093D01*
X71999Y669789D02*
Y667250D01*
X69460D01*
X74539D01*
X71999D01*
Y659632D01*
X74539Y657093D01*
X107548Y672328D02*
Y657093D01*
X99930D01*
X97391Y659632D01*
Y664710D01*
X99930Y667250D01*
X107548D01*
X120244Y657093D02*
X115166D01*
X112626Y659632D01*
Y664710D01*
X115166Y667250D01*
X120244D01*
X122783Y664710D01*
Y662171D01*
X112626D01*
X130400Y657093D02*
Y669789D01*
Y664710D01*
X127861D01*
X132940D01*
X130400D01*
Y669789D01*
X132940Y672328D01*
X140557Y657093D02*
X145636D01*
X143096D01*
Y667250D01*
X140557D01*
X153253Y657093D02*
Y667250D01*
X160871D01*
X163410Y664710D01*
Y657093D01*
X168488D02*
X173566D01*
X171027D01*
Y667250D01*
X168488D01*
X183723Y669789D02*
Y667250D01*
X181184D01*
X186262D01*
X183723D01*
Y659632D01*
X186262Y657093D01*
X193880D02*
X198958D01*
X196419D01*
Y667250D01*
X193880D01*
X209115Y657093D02*
X214193D01*
X216733Y659632D01*
Y664710D01*
X214193Y667250D01*
X209115D01*
X206576Y664710D01*
Y659632D01*
X209115Y657093D01*
X221811D02*
Y667250D01*
X229428D01*
X231968Y664710D01*
Y657093D01*
X237046D02*
X244664D01*
X247203Y659632D01*
X244664Y662171D01*
X239585D01*
X237046Y664710D01*
X239585Y667250D01*
X247203D01*
X267516D02*
X270055D01*
Y664710D01*
X267516D01*
Y667250D01*
Y659632D02*
X270055D01*
Y657093D01*
X267516D01*
Y659632D01*
M02*
