G04*
G04 #@! TF.GenerationSoftware,Altium Limited,CircuitMaker,2.2.1 (2.2.1.6)*
G04*
G04 Layer_Physical_Order=1*
G04 Layer_Color=25308*
%FSLAX44Y44*%
%MOMM*%
G71*
G04*
G04 #@! TF.SameCoordinates,2AB76CEE-A046-4D56-9755-BC6112196B6F*
G04*
G04*
G04 #@! TF.FilePolarity,Positive*
G04*
G01*
G75*
%ADD10C,0.2540*%
%ADD31C,1.0000*%
%ADD32C,0.3000*%
%ADD33R,2.7940X2.7940*%
%ADD34C,2.7940*%
%ADD35R,1.5240X1.5240*%
%ADD36C,1.5240*%
%ADD37O,3.0480X1.5240*%
%ADD38R,1.6510X1.6510*%
%ADD39C,1.6510*%
%ADD40O,3.0000X3.4000*%
%ADD41O,1.5000X2.0000*%
%ADD42C,1.7780*%
%ADD43C,1.7000*%
%ADD44R,1.7000X1.7000*%
%ADD45C,3.0000*%
%ADD46C,6.0000*%
G36*
X50000Y396666D02*
X450000D01*
X450000Y396666D01*
X450140Y396694D01*
X456096Y396303D01*
X462088Y395112D01*
X467872Y393148D01*
X473352Y390446D01*
X478431Y387052D01*
X483024Y383024D01*
X487052Y378431D01*
X490446Y373352D01*
X493148Y367873D01*
X495112Y362088D01*
X496303Y356096D01*
X496694Y350140D01*
X496666Y350000D01*
Y50000D01*
X496666Y50000D01*
X496694Y49860D01*
X496303Y43904D01*
X495112Y37912D01*
X493148Y32127D01*
X490446Y26648D01*
X487052Y21569D01*
X483024Y16976D01*
X478431Y12948D01*
X473352Y9554D01*
X467872Y6852D01*
X462088Y4888D01*
X456096Y3697D01*
X450140Y3306D01*
X450000Y3334D01*
X50000D01*
X49860Y3306D01*
X43904Y3697D01*
X37912Y4888D01*
X32127Y6852D01*
X26648Y9554D01*
X21569Y12948D01*
X16976Y16976D01*
X12948Y21569D01*
X9554Y26648D01*
X6852Y32127D01*
X4888Y37912D01*
X3697Y43904D01*
X3306Y49860D01*
X3334Y50000D01*
Y350000D01*
X3306Y350140D01*
X3697Y356096D01*
X4888Y362088D01*
X6852Y367873D01*
X9554Y373352D01*
X12948Y378431D01*
X16976Y383024D01*
X21569Y387052D01*
X26648Y390446D01*
X32127Y393148D01*
X37912Y395112D01*
X43904Y396303D01*
X49860Y396694D01*
X50000Y396666D01*
D02*
G37*
%LPC*%
G36*
X52561Y382540D02*
X51270D01*
Y351270D01*
X82540D01*
Y352561D01*
X81739Y357620D01*
X80156Y362491D01*
X77831Y367055D01*
X74820Y371198D01*
X71198Y374820D01*
X67055Y377831D01*
X62491Y380156D01*
X57620Y381739D01*
X52561Y382540D01*
D02*
G37*
G36*
X48730D02*
X47439D01*
X42380Y381739D01*
X37509Y380156D01*
X32945Y377831D01*
X28802Y374820D01*
X25180Y371198D01*
X22169Y367055D01*
X19844Y362491D01*
X18261Y357620D01*
X17460Y352561D01*
Y351270D01*
X48730D01*
Y382540D01*
D02*
G37*
G36*
X382500Y391060D02*
X284500D01*
X282673Y390820D01*
X280970Y390115D01*
X279508Y388992D01*
X271508Y380993D01*
X270385Y379530D01*
X269680Y377827D01*
X269440Y376000D01*
Y368230D01*
X267952Y366291D01*
X266994Y363980D01*
X266668Y361500D01*
Y356500D01*
X266994Y354020D01*
X267952Y351709D01*
X269475Y349725D01*
X271459Y348202D01*
X273770Y347244D01*
X276250Y346918D01*
X278730Y347244D01*
X281041Y348202D01*
X283025Y349725D01*
X284548Y351709D01*
X285505Y354020D01*
X285832Y356500D01*
Y361500D01*
X285505Y363980D01*
X284548Y366291D01*
X283560Y367578D01*
Y373075D01*
X287425Y376940D01*
X379576D01*
X384440Y372076D01*
Y368691D01*
X383034Y367286D01*
X381600Y364803D01*
X380858Y362033D01*
Y359165D01*
X381600Y356396D01*
X383034Y353913D01*
X385062Y351885D01*
X387545Y350451D01*
X390315Y349709D01*
X393182D01*
X395952Y350451D01*
X398435Y351885D01*
X400462Y353913D01*
X401896Y356396D01*
X402638Y359165D01*
Y362033D01*
X401896Y364803D01*
X400462Y367286D01*
X398560Y369188D01*
Y375000D01*
X398320Y376827D01*
X397615Y378530D01*
X396493Y379992D01*
X387492Y388992D01*
X386030Y390115D01*
X384327Y390820D01*
X382500Y391060D01*
D02*
G37*
G36*
X451773Y368000D02*
X448227D01*
X444750Y367308D01*
X441474Y365951D01*
X438526Y363982D01*
X436018Y361474D01*
X434049Y358526D01*
X432692Y355250D01*
X432000Y351773D01*
Y348227D01*
X432692Y344750D01*
X434049Y341474D01*
X436018Y338526D01*
X438526Y336018D01*
X441474Y334049D01*
X444750Y332692D01*
X448227Y332000D01*
X451773D01*
X455250Y332692D01*
X458526Y334049D01*
X461474Y336018D01*
X463982Y338526D01*
X465951Y341474D01*
X467308Y344750D01*
X468000Y348227D01*
Y351773D01*
X467308Y355250D01*
X465951Y358526D01*
X463982Y361474D01*
X461474Y363982D01*
X458526Y365951D01*
X455250Y367308D01*
X451773Y368000D01*
D02*
G37*
G36*
X82540Y348730D02*
X51270D01*
Y317460D01*
X52561D01*
X57620Y318261D01*
X62491Y319844D01*
X67055Y322169D01*
X71198Y325180D01*
X74820Y328802D01*
X77831Y332945D01*
X80156Y337509D01*
X81739Y342380D01*
X82540Y347439D01*
Y348730D01*
D02*
G37*
G36*
X48730D02*
X17460D01*
Y347439D01*
X18261Y342380D01*
X19844Y337509D01*
X22169Y332945D01*
X25180Y328802D01*
X28802Y325180D01*
X32945Y322169D01*
X37509Y319844D01*
X42380Y318261D01*
X47439Y317460D01*
X48730D01*
Y348730D01*
D02*
G37*
G36*
X351250Y345082D02*
X347917Y344754D01*
X344713Y343782D01*
X341760Y342203D01*
X339171Y340079D01*
X337047Y337490D01*
X335468Y334537D01*
X334496Y331333D01*
X334168Y328000D01*
Y324000D01*
X334496Y320667D01*
X335468Y317463D01*
X337047Y314510D01*
X339171Y311921D01*
X341760Y309797D01*
X344713Y308218D01*
X347917Y307246D01*
X351250Y306918D01*
X354583Y307246D01*
X357787Y308218D01*
X360740Y309797D01*
X363329Y311921D01*
X365453Y314510D01*
X367032Y317463D01*
X368004Y320667D01*
X368332Y324000D01*
Y328000D01*
X368004Y331333D01*
X367032Y334537D01*
X365453Y337490D01*
X363329Y340079D01*
X360740Y342203D01*
X357787Y343782D01*
X354583Y344754D01*
X351250Y345082D01*
D02*
G37*
G36*
X251250D02*
X247917Y344754D01*
X244713Y343782D01*
X241760Y342203D01*
X239171Y340079D01*
X237047Y337490D01*
X235468Y334537D01*
X234496Y331333D01*
X234168Y328000D01*
Y324000D01*
X234496Y320667D01*
X235468Y317463D01*
X237047Y314510D01*
X239171Y311921D01*
X241760Y309797D01*
X244713Y308218D01*
X247917Y307246D01*
X251250Y306918D01*
X254583Y307246D01*
X257787Y308218D01*
X260740Y309797D01*
X263329Y311921D01*
X265453Y314510D01*
X267032Y317463D01*
X268004Y320667D01*
X268332Y324000D01*
Y328000D01*
X268004Y331333D01*
X267032Y334537D01*
X265453Y337490D01*
X263329Y340079D01*
X260740Y342203D01*
X257787Y343782D01*
X254583Y344754D01*
X251250Y345082D01*
D02*
G37*
G36*
X101126Y296410D02*
X100770D01*
Y281170D01*
X116010D01*
Y281526D01*
X115375Y284716D01*
X114131Y287720D01*
X112324Y290424D01*
X110024Y292724D01*
X107320Y294531D01*
X104316Y295776D01*
X101126Y296410D01*
D02*
G37*
G36*
X98230D02*
X97874D01*
X94684Y295776D01*
X91680Y294531D01*
X88975Y292724D01*
X86676Y290424D01*
X84869Y287720D01*
X83624Y284716D01*
X82990Y281526D01*
Y281170D01*
X98230D01*
Y296410D01*
D02*
G37*
G36*
X288052Y288998D02*
X281702D01*
Y280020D01*
X298132D01*
X297950Y281402D01*
X296926Y283874D01*
X295298Y285996D01*
X293176Y287625D01*
X290704Y288648D01*
X288052Y288998D01*
D02*
G37*
G36*
X279162D02*
X272812D01*
X270159Y288648D01*
X267688Y287625D01*
X265565Y285996D01*
X263937Y283874D01*
X262913Y281402D01*
X262731Y280020D01*
X279162D01*
Y288998D01*
D02*
G37*
G36*
X298132Y277480D02*
X281702D01*
Y268502D01*
X288052D01*
X290704Y268852D01*
X293176Y269875D01*
X295298Y271504D01*
X296926Y273626D01*
X297950Y276098D01*
X298132Y277480D01*
D02*
G37*
G36*
X279162D02*
X262731D01*
X262913Y276098D01*
X263937Y273626D01*
X265565Y271504D01*
X267688Y269875D01*
X270159Y268852D01*
X272812Y268502D01*
X279162D01*
Y277480D01*
D02*
G37*
G36*
X186338Y277310D02*
X186270D01*
Y268420D01*
X195160D01*
Y268488D01*
X194468Y271072D01*
X193130Y273388D01*
X191238Y275280D01*
X188922Y276618D01*
X186338Y277310D01*
D02*
G37*
G36*
X183730D02*
X183662D01*
X181078Y276618D01*
X178762Y275280D01*
X176870Y273388D01*
X175532Y271072D01*
X174840Y268488D01*
Y268420D01*
X183730D01*
Y277310D01*
D02*
G37*
G36*
X116010Y278630D02*
X100770D01*
Y263390D01*
X101126D01*
X104316Y264025D01*
X107320Y265269D01*
X110024Y267076D01*
X112324Y269375D01*
X114131Y272080D01*
X115375Y275084D01*
X116010Y278274D01*
Y278630D01*
D02*
G37*
G36*
X98230D02*
X82990D01*
Y278274D01*
X83624Y275084D01*
X84869Y272080D01*
X86676Y269375D01*
X88975Y267076D01*
X91680Y265269D01*
X94684Y264025D01*
X97874Y263390D01*
X98230D01*
Y278630D01*
D02*
G37*
G36*
X195160Y265880D02*
X186270D01*
Y256990D01*
X186338D01*
X188922Y257682D01*
X191238Y259020D01*
X193130Y260912D01*
X194468Y263228D01*
X195160Y265812D01*
Y265880D01*
D02*
G37*
G36*
X183730D02*
X174840D01*
Y265812D01*
X175532Y263228D01*
X176870Y260912D01*
X178762Y259020D01*
X181078Y257682D01*
X183662Y256990D01*
X183730D01*
Y265880D01*
D02*
G37*
G36*
X266980Y248895D02*
X257455D01*
Y239370D01*
X266980D01*
Y248895D01*
D02*
G37*
G36*
X254915D02*
X245390D01*
Y239370D01*
X254915D01*
Y248895D01*
D02*
G37*
G36*
X266980Y236830D02*
X257455D01*
Y227305D01*
X266980D01*
Y236830D01*
D02*
G37*
G36*
X254915D02*
X245390D01*
Y227305D01*
X254915D01*
Y236830D01*
D02*
G37*
G36*
X326250Y371082D02*
X323770Y370756D01*
X321459Y369798D01*
X319475Y368275D01*
X317952Y366291D01*
X316994Y363980D01*
X316668Y361500D01*
Y356500D01*
X316994Y354020D01*
X317952Y351709D01*
X319475Y349725D01*
X321459Y348202D01*
X323770Y347244D01*
X326250Y346918D01*
X328730Y347244D01*
X331041Y348202D01*
X333025Y349725D01*
X334548Y351709D01*
X334747Y352190D01*
X359325D01*
X451940Y259576D01*
Y246441D01*
X450286Y244787D01*
X448852Y242304D01*
X448110Y239534D01*
Y236667D01*
X448852Y233897D01*
X450286Y231414D01*
X452313Y229387D01*
X454797Y227953D01*
X457566Y227211D01*
X460434D01*
X463203Y227953D01*
X465687Y229387D01*
X467714Y231414D01*
X469148Y233897D01*
X469890Y236667D01*
Y239534D01*
X469148Y242304D01*
X467714Y244787D01*
X466060Y246441D01*
Y262500D01*
X465820Y264327D01*
X465115Y266030D01*
X463992Y267492D01*
X367242Y364243D01*
X365780Y365364D01*
X364077Y366070D01*
X362250Y366310D01*
X334533D01*
X333025Y368275D01*
X331041Y369798D01*
X328730Y370756D01*
X326250Y371082D01*
D02*
G37*
G36*
X393182Y295289D02*
X390315D01*
X387545Y294547D01*
X385062Y293113D01*
X383034Y291086D01*
X381600Y288603D01*
X380858Y285833D01*
Y282966D01*
X381600Y280196D01*
X383034Y277713D01*
X385062Y275685D01*
X387545Y274251D01*
X390315Y273509D01*
X392654D01*
X404940Y261223D01*
Y230924D01*
X393775Y219760D01*
X351384D01*
X350239Y220906D01*
X347900Y222256D01*
X345292Y222955D01*
X342592D01*
X339984Y222256D01*
X337645Y220906D01*
X335736Y218997D01*
X334386Y216658D01*
X333687Y214050D01*
Y211350D01*
X334386Y208742D01*
X335736Y206403D01*
X337645Y204494D01*
X339984Y203144D01*
X342592Y202445D01*
X345292D01*
X347900Y203144D01*
X350239Y204494D01*
X351384Y205640D01*
X384690D01*
Y156544D01*
X384052Y155906D01*
X382786Y153713D01*
X382130Y151266D01*
Y148733D01*
X382786Y146286D01*
X384052Y144093D01*
X385843Y142302D01*
X388037Y141035D01*
X390484Y140379D01*
X393017D01*
X395463Y141035D01*
X397657Y142302D01*
X398294Y142939D01*
X447099D01*
X448926Y143180D01*
X450629Y143885D01*
X452091Y145007D01*
X458095Y151011D01*
X460434D01*
X463203Y151753D01*
X465687Y153187D01*
X467714Y155214D01*
X469148Y157697D01*
X469890Y160467D01*
Y163335D01*
X469148Y166104D01*
X467714Y168587D01*
X465687Y170615D01*
X463203Y172049D01*
X460434Y172791D01*
X457566D01*
X454797Y172049D01*
X452313Y170615D01*
X450286Y168587D01*
X448852Y166104D01*
X448110Y163335D01*
Y160996D01*
X444174Y157060D01*
X398810D01*
Y204825D01*
X401692Y207708D01*
X416992Y223008D01*
X418115Y224470D01*
X418820Y226173D01*
X419060Y228000D01*
Y264148D01*
X418820Y265975D01*
X418115Y267678D01*
X416992Y269140D01*
X402638Y283494D01*
Y285833D01*
X401896Y288603D01*
X400462Y291086D01*
X398435Y293113D01*
X395952Y294547D01*
X393182Y295289D01*
D02*
G37*
G36*
X301250Y371082D02*
X298770Y370756D01*
X296459Y369798D01*
X294475Y368275D01*
X292952Y366291D01*
X291994Y363980D01*
X291668Y361500D01*
Y356500D01*
X291994Y354020D01*
X292952Y351709D01*
X294440Y349770D01*
Y339925D01*
X225758Y271243D01*
X224636Y269780D01*
X223930Y268077D01*
X223690Y266250D01*
Y227000D01*
X223930Y225173D01*
X224636Y223470D01*
X225758Y222008D01*
X240058Y207708D01*
X241520Y206586D01*
X243223Y205880D01*
X245050Y205640D01*
X248743D01*
X249888Y204494D01*
X252227Y203144D01*
X254835Y202445D01*
X257535D01*
X260143Y203144D01*
X262482Y204494D01*
X264391Y206403D01*
X265741Y208742D01*
X266440Y211350D01*
Y214050D01*
X265741Y216658D01*
X264391Y218997D01*
X262482Y220906D01*
X260143Y222256D01*
X257535Y222955D01*
X254835D01*
X252227Y222256D01*
X249888Y220906D01*
X248743Y219760D01*
X247974D01*
X237810Y229925D01*
Y263326D01*
X306493Y332008D01*
X307614Y333470D01*
X308320Y335173D01*
X308560Y337000D01*
Y350422D01*
X309548Y351709D01*
X310505Y354020D01*
X310832Y356500D01*
Y361500D01*
X310505Y363980D01*
X309548Y366291D01*
X308025Y368275D01*
X306041Y369798D01*
X303730Y370756D01*
X301250Y371082D01*
D02*
G37*
G36*
X257535Y197555D02*
X254835D01*
X252227Y196856D01*
X249888Y195506D01*
X248743Y194360D01*
X229793D01*
X229155Y194998D01*
X226961Y196264D01*
X224515Y196920D01*
X221982D01*
X219535Y196264D01*
X217342Y194998D01*
X215550Y193207D01*
X214284Y191013D01*
X213628Y188566D01*
Y186033D01*
X214284Y183587D01*
X215550Y181393D01*
X217342Y179602D01*
X219535Y178336D01*
X221982Y177680D01*
X224515D01*
X226961Y178336D01*
X229155Y179602D01*
X229793Y180240D01*
X248743D01*
X249888Y179094D01*
X252227Y177744D01*
X254835Y177045D01*
X257535D01*
X260143Y177744D01*
X262482Y179094D01*
X264391Y181003D01*
X265741Y183342D01*
X266440Y185950D01*
Y188650D01*
X266202Y189539D01*
X266254Y189800D01*
X265982Y191166D01*
X265208Y192323D01*
X265014Y192518D01*
X264391Y193597D01*
X262482Y195506D01*
X260143Y196856D01*
X257535Y197555D01*
D02*
G37*
G36*
X328692Y288453D02*
X313452D01*
X310940Y288122D01*
X308600Y287153D01*
X306591Y285611D01*
X305049Y283601D01*
X304079Y281261D01*
X303749Y278750D01*
X304079Y276239D01*
X305049Y273899D01*
X306591Y271889D01*
X308600Y270347D01*
X310940Y269378D01*
X313452Y269047D01*
X326620D01*
X336882Y258785D01*
Y245542D01*
X336400Y245060D01*
X314750D01*
X312923Y244820D01*
X311220Y244114D01*
X309757Y242992D01*
X296008Y229242D01*
X294886Y227780D01*
X294180Y226077D01*
X293940Y224250D01*
Y179925D01*
X282976Y168960D01*
X263627D01*
X262482Y170106D01*
X260143Y171456D01*
X257535Y172155D01*
X254835D01*
X252227Y171456D01*
X249888Y170106D01*
X248743Y168960D01*
X113861D01*
X113652Y169465D01*
X111905Y172080D01*
X109680Y174305D01*
X107065Y176052D01*
X106560Y176261D01*
Y213130D01*
X115470D01*
Y222040D01*
X172350D01*
X174177Y222280D01*
X175880Y222985D01*
X177342Y224108D01*
X185365Y232130D01*
X194620D01*
Y251370D01*
X175380D01*
Y242115D01*
X169426Y236160D01*
X115470D01*
Y245070D01*
X83530D01*
Y213130D01*
X92440D01*
Y176261D01*
X91935Y176052D01*
X89320Y174305D01*
X87095Y172080D01*
X85348Y169465D01*
X84144Y166558D01*
X83530Y163473D01*
Y160327D01*
X84144Y157242D01*
X85348Y154335D01*
X87095Y151720D01*
X89320Y149495D01*
X91935Y147748D01*
X94842Y146544D01*
X97927Y145930D01*
X101073D01*
X104158Y146544D01*
X107065Y147748D01*
X109680Y149495D01*
X111905Y151720D01*
X113652Y154335D01*
X113861Y154840D01*
X248743D01*
X249888Y153694D01*
X252227Y152344D01*
X254835Y151645D01*
X257535D01*
X260143Y152344D01*
X262482Y153694D01*
X263627Y154840D01*
X285900D01*
X287727Y155080D01*
X289430Y155786D01*
X290893Y156908D01*
X305993Y172008D01*
X307115Y173470D01*
X307820Y175173D01*
X308060Y177000D01*
Y221325D01*
X317675Y230940D01*
X336600D01*
X337645Y229894D01*
X339984Y228544D01*
X342592Y227845D01*
X345292D01*
X347900Y228544D01*
X350239Y229894D01*
X351384Y231040D01*
X379848D01*
X381675Y231280D01*
X383378Y231985D01*
X384840Y233108D01*
X392113Y240381D01*
X393015D01*
X395462Y241036D01*
X397655Y242303D01*
X399446Y244094D01*
X400713Y246287D01*
X401368Y248734D01*
Y251267D01*
X400713Y253714D01*
X399446Y255907D01*
X397655Y257698D01*
X395462Y258965D01*
X393015Y259621D01*
X390482D01*
X388035Y258965D01*
X385841Y257698D01*
X384050Y255907D01*
X382784Y253714D01*
X382128Y251267D01*
Y250366D01*
X376923Y245160D01*
X351384D01*
X351002Y245542D01*
Y261710D01*
X350762Y263537D01*
X350056Y265240D01*
X348935Y266702D01*
X338219Y277417D01*
X338395Y278750D01*
X338064Y281261D01*
X337095Y283601D01*
X335553Y285611D01*
X333543Y287153D01*
X331203Y288122D01*
X328692Y288453D01*
D02*
G37*
G36*
X345292Y172155D02*
X342592D01*
X339984Y171456D01*
X337645Y170106D01*
X335736Y168197D01*
X334386Y165858D01*
X333687Y163250D01*
Y160550D01*
X334386Y157942D01*
X335736Y155603D01*
X336882Y154458D01*
Y129367D01*
X334588Y127073D01*
X332855Y128403D01*
X330515Y129372D01*
X328004Y129703D01*
X312764D01*
X310252Y129372D01*
X307912Y128403D01*
X305903Y126861D01*
X304361Y124852D01*
X303391Y122511D01*
X303060Y120000D01*
X303391Y117489D01*
X304361Y115148D01*
X305903Y113139D01*
X307912Y111597D01*
X310252Y110628D01*
X312764Y110297D01*
X328004D01*
X330515Y110628D01*
X332855Y111597D01*
X334605Y112940D01*
X337500D01*
X339327Y113180D01*
X341030Y113885D01*
X342492Y115007D01*
X348935Y121449D01*
X350056Y122912D01*
X350762Y124615D01*
X351002Y126442D01*
Y154458D01*
X352148Y155603D01*
X353498Y157942D01*
X354197Y160550D01*
Y163250D01*
X353498Y165858D01*
X352148Y168197D01*
X350239Y170106D01*
X347900Y171456D01*
X345292Y172155D01*
D02*
G37*
G36*
X287363Y130248D02*
X281014D01*
Y121270D01*
X297444D01*
X297262Y122652D01*
X296238Y125124D01*
X294610Y127246D01*
X292487Y128875D01*
X290016Y129899D01*
X287363Y130248D01*
D02*
G37*
G36*
X278474D02*
X272124D01*
X269471Y129899D01*
X267000Y128875D01*
X264877Y127246D01*
X263249Y125124D01*
X262225Y122652D01*
X262043Y121270D01*
X278474D01*
Y130248D01*
D02*
G37*
G36*
X297444Y118730D02*
X281014D01*
Y109752D01*
X287363D01*
X290016Y110101D01*
X292487Y111125D01*
X294610Y112754D01*
X296238Y114876D01*
X297262Y117348D01*
X297444Y118730D01*
D02*
G37*
G36*
X278474D02*
X262043D01*
X262225Y117348D01*
X263249Y114876D01*
X264877Y112754D01*
X267000Y111125D01*
X269471Y110101D01*
X272124Y109752D01*
X278474D01*
Y118730D01*
D02*
G37*
G36*
X345292Y197555D02*
X342592D01*
X339984Y196856D01*
X337645Y195506D01*
X335736Y193597D01*
X334386Y191258D01*
X333687Y188650D01*
Y185950D01*
X334386Y183342D01*
X335736Y181003D01*
X337645Y179094D01*
X339984Y177744D01*
X342592Y177045D01*
X345292D01*
X347900Y177744D01*
X350239Y179094D01*
X351084Y179940D01*
X357326D01*
X358940Y178326D01*
Y108674D01*
X338576Y88310D01*
X334903D01*
X334865Y88361D01*
X332855Y89903D01*
X330515Y90872D01*
X328004Y91203D01*
X312764D01*
X310252Y90872D01*
X307912Y89903D01*
X305903Y88361D01*
X304361Y86351D01*
X303391Y84011D01*
X303060Y81500D01*
X303391Y78989D01*
X304361Y76649D01*
X305903Y74639D01*
X307912Y73097D01*
X310252Y72128D01*
X312764Y71797D01*
X328004D01*
X330515Y72128D01*
X332855Y73097D01*
X334279Y74190D01*
X341500D01*
X343327Y74430D01*
X345030Y75135D01*
X346492Y76258D01*
X370993Y100758D01*
X372114Y102220D01*
X372820Y103923D01*
X373060Y105750D01*
Y181250D01*
X372820Y183077D01*
X372114Y184780D01*
X370993Y186243D01*
X365242Y191992D01*
X363780Y193114D01*
X362077Y193820D01*
X360250Y194060D01*
X351684D01*
X350239Y195506D01*
X347900Y196856D01*
X345292Y197555D01*
D02*
G37*
G36*
X287363Y91748D02*
X281014D01*
Y82770D01*
X297444D01*
X297262Y84152D01*
X296238Y86624D01*
X294610Y88746D01*
X292487Y90375D01*
X290016Y91398D01*
X287363Y91748D01*
D02*
G37*
G36*
X278474D02*
X272124D01*
X269471Y91398D01*
X267000Y90375D01*
X264877Y88746D01*
X263249Y86624D01*
X262225Y84152D01*
X262043Y82770D01*
X278474D01*
Y91748D01*
D02*
G37*
G36*
X297444Y80230D02*
X281014D01*
Y71252D01*
X287363D01*
X290016Y71602D01*
X292487Y72625D01*
X294610Y74254D01*
X296238Y76376D01*
X297262Y78848D01*
X297444Y80230D01*
D02*
G37*
G36*
X278474D02*
X262043D01*
X262225Y78848D01*
X263249Y76376D01*
X264877Y74254D01*
X267000Y72625D01*
X269471Y71602D01*
X272124Y71252D01*
X278474D01*
Y80230D01*
D02*
G37*
G36*
X452561Y82540D02*
X451270D01*
Y51270D01*
X482540D01*
Y52561D01*
X481739Y57620D01*
X480156Y62491D01*
X477831Y67055D01*
X474820Y71198D01*
X471198Y74820D01*
X467055Y77831D01*
X462491Y80156D01*
X457620Y81739D01*
X452561Y82540D01*
D02*
G37*
G36*
X448730D02*
X447439D01*
X442380Y81739D01*
X437509Y80156D01*
X432945Y77831D01*
X428802Y74820D01*
X425180Y71198D01*
X422169Y67055D01*
X419844Y62491D01*
X418261Y57620D01*
X417460Y52561D01*
Y51270D01*
X448730D01*
Y82540D01*
D02*
G37*
G36*
X184703Y44790D02*
X184520D01*
Y35020D01*
X194290D01*
Y35203D01*
X193538Y38011D01*
X192084Y40529D01*
X190029Y42584D01*
X187511Y44038D01*
X184703Y44790D01*
D02*
G37*
G36*
X181980D02*
X181797D01*
X178989Y44038D01*
X176471Y42584D01*
X174416Y40529D01*
X172962Y38011D01*
X172210Y35203D01*
Y35020D01*
X181980D01*
Y44790D01*
D02*
G37*
G36*
X51773Y68000D02*
X48227D01*
X44750Y67308D01*
X41474Y65951D01*
X38526Y63981D01*
X36019Y61474D01*
X34049Y58526D01*
X32692Y55250D01*
X32000Y51773D01*
Y48227D01*
X32692Y44750D01*
X34049Y41474D01*
X36019Y38526D01*
X38526Y36019D01*
X41474Y34049D01*
X44750Y32692D01*
X48227Y32000D01*
X51773D01*
X55250Y32692D01*
X58526Y34049D01*
X61474Y36019D01*
X63981Y38526D01*
X65951Y41474D01*
X67308Y44750D01*
X68000Y48227D01*
Y51773D01*
X67308Y55250D01*
X65951Y58526D01*
X63981Y61474D01*
X61474Y63981D01*
X58526Y65951D01*
X55250Y67308D01*
X51773Y68000D01*
D02*
G37*
G36*
X224517Y96919D02*
X221984D01*
X219537Y96263D01*
X217343Y94997D01*
X215552Y93206D01*
X214286Y91012D01*
X213630Y88565D01*
Y86032D01*
X214286Y83586D01*
X215552Y81392D01*
X217343Y79601D01*
X219537Y78334D01*
X221984Y77679D01*
X222885D01*
X226990Y73574D01*
Y44250D01*
X223550D01*
Y23250D01*
X244550D01*
Y44250D01*
X241110D01*
Y76499D01*
X240870Y78326D01*
X240165Y80029D01*
X239042Y81491D01*
X232870Y87664D01*
Y88565D01*
X232214Y91012D01*
X230948Y93206D01*
X229157Y94997D01*
X226963Y96263D01*
X224517Y96919D01*
D02*
G37*
G36*
X115470Y127070D02*
X83530D01*
Y95130D01*
X115470D01*
Y104940D01*
X156575D01*
X201940Y59576D01*
Y41889D01*
X200248Y40197D01*
X198866Y37803D01*
X198150Y35132D01*
Y32368D01*
X198866Y29697D01*
X200248Y27303D01*
X202203Y25348D01*
X204597Y23966D01*
X207268Y23250D01*
X210032D01*
X212703Y23966D01*
X215097Y25348D01*
X217052Y27303D01*
X218434Y29697D01*
X219150Y32368D01*
Y35132D01*
X218434Y37803D01*
X217052Y40197D01*
X216060Y41189D01*
Y62500D01*
X215820Y64327D01*
X215114Y66030D01*
X213993Y67492D01*
X164492Y116993D01*
X163030Y118115D01*
X161327Y118820D01*
X159500Y119060D01*
X115470D01*
Y127070D01*
D02*
G37*
G36*
X194290Y32480D02*
X184520D01*
Y22710D01*
X184703D01*
X187511Y23462D01*
X190029Y24916D01*
X192084Y26971D01*
X193538Y29489D01*
X194290Y32297D01*
Y32480D01*
D02*
G37*
G36*
X181980D02*
X172210D01*
Y32297D01*
X172962Y29489D01*
X174416Y26971D01*
X176471Y24916D01*
X178989Y23462D01*
X181797Y22710D01*
X181980D01*
Y32480D01*
D02*
G37*
G36*
X482540Y48730D02*
X451270D01*
Y17460D01*
X452561D01*
X457620Y18261D01*
X462491Y19844D01*
X467055Y22169D01*
X471198Y25180D01*
X474820Y28802D01*
X477831Y32945D01*
X480156Y37509D01*
X481739Y42380D01*
X482540Y47439D01*
Y48730D01*
D02*
G37*
G36*
X448730D02*
X417460D01*
Y47439D01*
X418261Y42380D01*
X419844Y37509D01*
X422169Y32945D01*
X425180Y28802D01*
X428802Y25180D01*
X432945Y22169D01*
X437509Y19844D01*
X442380Y18261D01*
X447439Y17460D01*
X448730D01*
Y48730D01*
D02*
G37*
%LPD*%
G54D10*
X450000Y400000D02*
G03*
X450000Y400000I0J0D01*
G01*
X500000Y50000D02*
G03*
X500000Y50000I0J0D01*
G01*
Y350000D02*
G03*
X450000Y400000I-50000J0D01*
G01*
Y0D02*
G03*
X500000Y50000I0J50000D01*
G01*
X0D02*
G03*
X50000Y0I50000J0D01*
G01*
Y400000D02*
G03*
X0Y350000I0J-50000D01*
G01*
X50000Y400000D02*
X450000D01*
X0Y50000D02*
Y350000D01*
X50000Y0D02*
X450000D01*
X500000Y50000D02*
Y350000D01*
G54D31*
X301250Y359000D02*
X301500Y358750D01*
Y337000D02*
Y358750D01*
X325064Y81250D02*
X341500D01*
X230750Y266250D02*
X301500Y337000D01*
X276500Y359000D02*
Y376000D01*
X326500Y362000D02*
X329250Y359250D01*
X362250D02*
X459000Y262500D01*
X329250Y359250D02*
X362250D01*
X230750Y227000D02*
Y266250D01*
X459000Y238101D02*
Y262500D01*
X391748Y284399D02*
X412000Y264148D01*
Y228000D02*
Y264148D01*
X391500Y360848D02*
X391748Y360599D01*
X391500Y360848D02*
Y375000D01*
X382500Y384000D02*
X391500Y375000D01*
X284500Y384000D02*
X382500D01*
X341500Y81250D02*
X366000Y105750D01*
X325402Y280250D02*
X343942Y261710D01*
X314750Y238000D02*
X343842D01*
X301000Y224250D02*
X314750Y238000D01*
X301000Y177000D02*
Y224250D01*
X285900Y161900D02*
X301000Y177000D01*
X256185Y161900D02*
X285900D01*
X245050Y212700D02*
X256185D01*
X230750Y227000D02*
X245050Y212700D01*
X99500Y113700D02*
X101200Y112000D01*
X209000Y34100D02*
Y62500D01*
X159500Y112000D02*
X209000Y62500D01*
X101200Y112000D02*
X159500D01*
X99500Y161900D02*
X256185D01*
X223248Y187300D02*
X256185D01*
X223250Y87299D02*
X234050Y76499D01*
Y33750D02*
Y76499D01*
X208650Y33750D02*
X209000Y34100D01*
X99500Y164500D02*
Y229100D01*
X391750Y207750D02*
X396700Y212700D01*
X391750Y149999D02*
Y207750D01*
X343942Y187300D02*
X344242Y187000D01*
X360250D01*
X366000Y181250D01*
Y105750D02*
Y181250D01*
X325402Y120000D02*
X337500D01*
X312702D02*
X325402D01*
X337500D02*
X343942Y126442D01*
Y161900D01*
X447099Y149999D02*
X459000Y161901D01*
X391750Y149999D02*
X447099D01*
X343842Y238000D02*
X343942Y238100D01*
Y261710D01*
X379848Y238100D02*
X391748Y250001D01*
X343942Y238100D02*
X379848D01*
X343942Y212700D02*
X396700D01*
X276500Y376000D02*
X284500Y384000D01*
X172350Y229100D02*
X185000Y241750D01*
X99500Y229100D02*
X172350D01*
X396700Y212700D02*
X412000Y228000D01*
G54D32*
X262484Y190001D02*
X262685Y189800D01*
G54D33*
X99500Y229100D02*
D03*
Y111100D02*
D03*
G54D34*
Y279900D02*
D03*
Y161900D02*
D03*
G54D35*
X185000Y241750D02*
D03*
G54D36*
Y267150D02*
D03*
X274664Y81500D02*
D03*
X325463D02*
D03*
X275352Y278750D02*
D03*
X326152D02*
D03*
X325463Y120000D02*
D03*
X274664D02*
D03*
X223250Y87299D02*
D03*
X223248Y187300D02*
D03*
X391750Y149999D02*
D03*
X391748Y250001D02*
D03*
G54D37*
X279743Y81500D02*
D03*
X320383D02*
D03*
X280432Y278750D02*
D03*
X321072D02*
D03*
X320383Y120000D02*
D03*
X279743D02*
D03*
G54D38*
X256185Y238100D02*
D03*
G54D39*
Y212700D02*
D03*
Y161900D02*
D03*
X343942D02*
D03*
Y187300D02*
D03*
Y212700D02*
D03*
Y238100D02*
D03*
X256185Y187300D02*
D03*
G54D40*
X251250Y326000D02*
D03*
X351250D02*
D03*
G54D41*
X276250Y359000D02*
D03*
X301250D02*
D03*
X326250D02*
D03*
G54D42*
X391748Y360599D02*
D03*
Y284399D02*
D03*
X459000Y161901D02*
D03*
Y238101D02*
D03*
G54D43*
X183250Y33750D02*
D03*
X208650D02*
D03*
G54D44*
X234050D02*
D03*
G54D45*
X450000Y350000D02*
D03*
X50000Y50000D02*
D03*
G54D46*
X450000D02*
D03*
X50000Y350000D02*
D03*
M02*
