M48
;Layer_Color=6321
;FILE_FORMAT=4:4
METRIC,LZ
;TYPE=PLATED
T1F00S00C0.7620
T2F00S00C0.8890
T3F00S00C0.9000
T4F00S00C1.0000
T5F00S00C1.1000
T6F00S00C1.5240
T8F00S00C3.2000
;TYPE=NON_PLATED
T9F00S00C3.2000
%
T01
X0022325Y00087299
X00223248Y001873
X0039175Y00149999
X00391748Y00250001
X00185Y0024175
Y0026715
T02
X00274664Y000815
X00287363
X00312764
X00325463
Y0012
X00312764
X00287363
X00274664
X00256185Y001619
Y001873
Y002127
Y002381
X00275352Y0027875
X00288052
X00313452
X00326152
X00343942Y002381
Y002127
Y001873
Y001619
T03
X00459Y00161901
Y00238101
X00391748Y00284399
Y00360599
T04
X0027625Y00359
X0030125
X0032625
T05
X0018325Y0003375
X0020865
X0023405
T06
X000995Y001111
Y001619
Y002291
Y002799
T08
X0045Y0005
X0005Y0035
T09
X0005Y0005
X0045Y0035
M30
