G04*
G04 #@! TF.GenerationSoftware,Altium Limited,CircuitMaker,2.2.1 (2.2.1.6)*
G04*
G04 Layer_Color=128*
%FSLAX44Y44*%
%MOMM*%
G71*
G04*
G04 #@! TF.SameCoordinates,2AB76CEE-A046-4D56-9755-BC6112196B6F*
G04*
G04*
G04 #@! TF.FilePolarity,Positive*
G04*
G01*
G75*
%ADD51C,0.0508*%
G54D51*
X91880Y229100D02*
X107120D01*
X99500Y221480D02*
Y236720D01*
X91880Y279900D02*
X107120D01*
X99500Y272280D02*
Y287520D01*
X181190Y241750D02*
X188810D01*
X185000Y237940D02*
Y245560D01*
X181190Y267150D02*
X188810D01*
X185000Y263340D02*
Y270960D01*
X282918Y81500D02*
X291808D01*
X287363Y77055D02*
Y85945D01*
X308319Y81500D02*
X317208D01*
X312764Y77055D02*
Y85945D01*
X270219Y81500D02*
X279109D01*
X274664Y77055D02*
Y85945D01*
X321018Y81500D02*
X329908D01*
X325463Y77055D02*
Y85945D01*
X283607Y278750D02*
X292497D01*
X288052Y274305D02*
Y283195D01*
X309007Y278750D02*
X317897D01*
X313452Y274305D02*
Y283195D01*
X270907Y278750D02*
X279797D01*
X275352Y274305D02*
Y283195D01*
X321707Y278750D02*
X330597D01*
X326152Y274305D02*
Y283195D01*
X91880Y161900D02*
X107120D01*
X99500Y154280D02*
Y169520D01*
X91880Y111100D02*
X107120D01*
X99500Y103480D02*
Y118720D01*
X251740Y238100D02*
X260630D01*
X256185Y233655D02*
Y242545D01*
X251740Y212700D02*
X260630D01*
X256185Y208255D02*
Y217145D01*
X251740Y161900D02*
X260630D01*
X256185Y157455D02*
Y166345D01*
X339497Y161900D02*
X348387D01*
X343942Y157455D02*
Y166345D01*
X339497Y187300D02*
X348387D01*
X343942Y182855D02*
Y191745D01*
X339497Y212700D02*
X348387D01*
X343942Y208255D02*
Y217145D01*
X339497Y238100D02*
X348387D01*
X343942Y233655D02*
Y242545D01*
X251740Y187300D02*
X260630D01*
X256185Y182855D02*
Y191745D01*
X321018Y120000D02*
X329908D01*
X325463Y115555D02*
Y124445D01*
X270219Y120000D02*
X279109D01*
X274664Y115555D02*
Y124445D01*
X308319Y120000D02*
X317208D01*
X312764Y115555D02*
Y124445D01*
X282918Y120000D02*
X291808D01*
X287363Y115555D02*
Y124445D01*
X242250Y326000D02*
X260250D01*
X251250Y317000D02*
Y335000D01*
X342250Y326000D02*
X360250D01*
X351250Y317000D02*
Y335000D01*
X271250Y359000D02*
X281250D01*
X276250Y354000D02*
Y364000D01*
X296250Y359000D02*
X306250D01*
X301250Y354000D02*
Y364000D01*
X321250Y359000D02*
X331250D01*
X326250Y354000D02*
Y364000D01*
X219440Y87299D02*
X227060D01*
X223250Y83489D02*
Y91109D01*
X219438Y187300D02*
X227058D01*
X223248Y183490D02*
Y191110D01*
X387248Y360599D02*
X396248D01*
X391748Y356099D02*
Y365099D01*
X387248Y284399D02*
X396248D01*
X391748Y279899D02*
Y288899D01*
X454500Y161901D02*
X463500D01*
X459000Y157401D02*
Y166401D01*
X454500Y238101D02*
X463500D01*
X459000Y233601D02*
Y242601D01*
X387940Y149999D02*
X395560D01*
X391750Y146189D02*
Y153809D01*
X387938Y250001D02*
X395558D01*
X391748Y246191D02*
Y253811D01*
X177750Y33750D02*
X188750D01*
X183250Y28250D02*
Y39250D01*
X203150Y33750D02*
X214150D01*
X208650Y28250D02*
Y39250D01*
X228550Y33750D02*
X239550D01*
X234050Y28250D02*
Y39250D01*
X434000Y350000D02*
X466000D01*
X450000Y334000D02*
Y366000D01*
X434000Y50000D02*
X466000D01*
X450000Y34000D02*
Y66000D01*
X34000Y50000D02*
X66000D01*
X50000Y34000D02*
Y66000D01*
X34000Y350000D02*
X66000D01*
X50000Y334000D02*
Y366000D01*
M02*
